<svg width="347" height="65" viewBox="0 0 347 65" fill="none" xmlns="http://www.w3.org/2000/svg">
<path d="M124.752 53.2633H115.231L113.141 60.1294H104.782L115.561 27.7158H125.176L135.483 60.1294H126.465L124.752 53.2633ZM120.29 34.3148L116.802 47.0414H123.212L120.29 34.3148Z" fill="white"/>
<path d="M141.328 27.7158H161.204V34.1263H149.875V40.411H160.654V46.8215H149.875V53.7818H161.801V60.1923H141.375L141.328 27.7158Z" fill="white"/>
<path d="M181.912 50.938C181.079 47.7956 179.634 47.4499 178.251 47.4499H177.78V60.1294H169.06V27.7158H182.006C188.558 27.7158 192.266 30.4654 192.266 36.4516C192.294 38.2409 191.673 39.9796 190.517 41.346C189.362 42.7124 187.75 43.6138 185.981 43.8833V43.9933C187.835 44.5904 189.124 45.4702 190.349 49.9795L193.413 60.1294H184.41L181.912 50.938ZM179.964 41.228C180.432 41.2407 180.899 41.1588 181.335 40.9872C181.771 40.8157 182.168 40.5579 182.503 40.2294C182.837 39.9009 183.102 39.5084 183.281 39.0752C183.46 38.6421 183.55 38.1773 183.546 37.7086C183.607 37.2007 183.553 36.6856 183.389 36.2012C183.225 35.7167 182.954 35.2752 182.597 34.909C182.24 34.5428 181.805 34.2613 181.325 34.085C180.845 33.9088 180.331 33.8424 179.822 33.8906H177.418V41.1809L179.964 41.228Z" fill="white"/>
<path d="M213.634 27.1658C220.688 27.1658 228.026 31.8793 228.026 43.9303C228.026 55.9813 220.688 60.6792 213.634 60.6792C206.579 60.6792 199.242 55.9656 199.242 43.9303C199.242 31.895 206.563 27.1658 213.634 27.1658ZM213.539 54.4573C217.2 54.4573 218.96 50.3251 218.96 43.9303C218.96 37.5356 217.2 33.3877 213.539 33.3877C209.879 33.3877 208.056 37.6142 208.056 43.9303C208.056 50.2465 209.863 54.4573 213.539 54.4573Z" fill="white"/>
<path d="M235.835 52.3205C238.099 53.5253 240.609 54.197 243.172 54.2845C246.472 54.2845 247.634 52.839 247.634 50.7964C247.634 48.7539 246.126 48.0626 243.691 47.1356L241.79 46.3814C236.447 44.2917 234.813 41.4165 234.813 36.8286C234.813 30.6852 239.747 27.2129 246.613 27.2129C249.394 27.1359 252.165 27.5782 254.783 28.517L254.406 34.8018C252.322 33.7974 250.042 33.2612 247.729 33.2306C245.12 33.2306 243.549 34.299 243.549 36.2944C243.549 37.9598 244.382 38.714 247.257 40.0024L251.17 41.7778C252.851 42.3661 254.294 43.4867 255.281 44.9697C256.268 46.4527 256.744 48.2171 256.637 49.9951C256.637 57.0969 251.531 60.7106 243.973 60.7106C241.051 60.6736 238.146 60.2564 235.332 59.4694L235.835 52.3205Z" fill="white"/>
<path d="M277.707 27.1658C284.762 27.1658 292.099 31.8793 292.099 43.9303C292.099 55.9813 284.762 60.6792 277.707 60.6792C270.652 60.6792 263.315 55.9656 263.315 43.9303C263.315 31.895 270.652 27.1658 277.707 27.1658ZM277.613 54.4573C281.289 54.4573 283.049 50.3251 283.049 43.9303C283.049 37.5356 281.289 33.3877 277.613 33.3877C273.936 33.3877 272.129 37.6142 272.129 43.9303C272.129 50.2465 273.952 54.4573 277.613 54.4573Z" fill="white"/>
<path d="M299.767 27.7158H318.888V34.1263H308.314V40.7252H318.432V47.1357H308.314V60.1294H299.767V27.7158Z" fill="white"/>
<path d="M330.499 34.3148H323.539V27.7158H346.195V34.3148H339.235V60.1294H330.499V34.3148Z" fill="white"/>
<path d="M52.0845 40.0338H51.5346C51.0089 40.0329 50.4839 40.0697 49.9634 40.1438C48.2099 40.4052 46.4412 40.5522 44.6685 40.5838C42.7873 40.5948 40.9212 40.2482 39.1694 39.5625H38.9651C38.8423 39.5638 38.7228 39.6019 38.6219 39.6719C38.5211 39.742 38.4436 39.8407 38.3995 39.9553C38.3846 40.0226 38.3846 40.0923 38.3995 40.1595C38.3974 40.281 38.4323 40.4002 38.4997 40.5013C38.5671 40.6023 38.6637 40.6804 38.7766 40.7252C40.6472 41.4618 42.6425 41.8299 44.6528 41.8093C46.4829 41.7794 48.3092 41.6325 50.1205 41.3694C50.5741 41.3127 51.0304 41.2812 51.4875 41.2751H52.006C52.155 41.2796 52.3001 41.2267 52.4112 41.1272C52.5223 41.0278 52.591 40.8895 52.603 40.7409C52.6213 40.6598 52.622 40.5758 52.605 40.4945C52.588 40.4131 52.5538 40.3364 52.5047 40.2694C52.4556 40.2024 52.3926 40.1467 52.3201 40.106C52.2477 40.0654 52.1673 40.0408 52.0845 40.0338ZM37.4882 38.9497H37.4096C34.9189 39.3365 32.404 39.5465 29.8837 39.5782C25.852 39.5127 21.8774 38.614 18.2097 36.9386C18.0842 36.9295 17.9582 36.9295 17.8327 36.9386C17.5341 36.9386 16.9685 36.86 16.3557 36.86C15.8255 36.8429 15.2957 36.9064 14.7846 37.0486C14.1182 37.27 13.4267 37.4073 12.7263 37.4571C12.6117 37.4746 12.4952 37.4746 12.3806 37.4571C11.1047 37.0878 9.88006 36.56 8.73549 35.8859C7.66074 35.2698 6.51611 34.7845 5.32601 34.4404L4.13191 34.1576C3.5977 34.0319 2.92209 33.8748 2.35647 33.7177L1.72799 33.5291C2.15455 33.3892 2.59029 33.2789 3.03208 33.1992C4.0682 32.9896 5.11862 32.8583 6.17445 32.8064H6.86577C9.08034 32.8498 11.2458 33.467 13.1505 34.5975C13.8171 34.9139 14.5501 35.0648 15.2873 35.0375H16.23C16.3801 35.0256 16.5201 34.9575 16.6221 34.8468C16.724 34.7361 16.7804 34.5909 16.78 34.4404C16.7683 34.2889 16.7008 34.1471 16.5904 34.0426C16.4801 33.938 16.3349 33.8782 16.1829 33.8748H16.1044H15.2873C14.7479 33.8933 14.2112 33.7914 13.7161 33.5763C11.6744 32.3618 9.35105 31.7011 6.97576 31.6594H6.09589C5.04101 31.7219 3.99132 31.8531 2.95352 32.0522C2.34908 32.1498 1.75481 32.3023 1.17808 32.5079C0.675297 32.7121 0.266788 32.8849 0.125381 33.3092C0.117711 33.3875 0.117711 33.4665 0.125381 33.5448C0.128259 33.695 0.171691 33.8416 0.251076 33.9691C0.722433 34.6761 1.93225 34.8961 3.88052 35.3674L5.05891 35.6345C6.15362 35.966 7.20767 36.4192 8.20128 36.9857C9.43871 37.6739 10.7586 38.2018 12.1292 38.5569C12.3242 38.6103 12.5244 38.6419 12.7263 38.6512C13.5156 38.5902 14.2927 38.421 15.0359 38.1484C15.4423 38.0517 15.8597 38.0094 16.2772 38.0227C16.8271 38.0227 17.3613 38.0227 17.6598 38.0227H17.8012C21.6331 39.7824 25.793 40.714 30.0094 40.7566C32.5715 40.7273 35.1284 40.5173 37.661 40.1281C37.8012 40.109 37.9296 40.0394 38.0222 39.9324C38.1148 39.8254 38.1651 39.6883 38.1638 39.5468V39.4682C38.1404 39.3111 38.0569 39.1692 37.9308 39.0724C37.8048 38.9757 37.6461 38.9317 37.4882 38.9497ZM17.4399 35.0689H17.597C20.9134 34.1442 24.3356 33.653 27.7783 33.6077C30.6326 33.5797 33.4706 34.0421 36.1684 34.9746C36.2303 34.9899 36.295 34.9899 36.357 34.9746C36.4797 34.9734 36.5993 34.9352 36.7002 34.8652C36.801 34.7952 36.8785 34.6964 36.9226 34.5818C36.9375 34.5146 36.9375 34.4448 36.9226 34.3776C36.9203 34.257 36.8816 34.1399 36.8115 34.0417C36.7414 33.9435 36.6431 33.8689 36.5298 33.8277C33.7063 32.8473 30.7356 32.3584 27.7468 32.3822C24.1991 32.4308 20.672 32.9324 17.2513 33.8748C17.1241 33.9095 17.0119 33.9854 16.9323 34.0905C16.8527 34.1957 16.8102 34.3242 16.8114 34.4561C16.8045 34.5083 16.8045 34.5611 16.8114 34.6133C16.8446 34.7516 16.9262 34.8736 17.0415 34.9571C17.1567 35.0407 17.298 35.0803 17.4399 35.0689ZM135.483 0.25139C135.43 0.174857 135.36 0.112088 135.278 0.0683469C135.196 0.0246059 135.105 0.00116842 135.012 0L134.87 0C132.49 0.59985 130.201 1.5195 128.067 2.73387C127.296 3.2619 126.634 3.93416 126.119 4.71356L125.852 5.18492C125.794 5.25962 125.741 5.33839 125.695 5.4206C124.624 6.00816 123.622 6.7144 122.709 7.52599C122.175 7.96592 121.704 8.39014 121.342 8.72009L120.808 9.20716C109.888 11.6896 105.285 14.1407 98.0417 19.5456C94.7164 19.9322 91.5069 21.002 88.6146 22.6879H87.6719C85.0556 22.6873 82.4936 23.4341 80.2873 24.8405L78.3548 25.846H75.5738C75.5094 25.4649 75.4255 25.0873 75.3224 24.7148C75.3224 24.4634 75.071 23.8349 75.071 23.8192C75.6737 21.9443 75.9967 19.9907 76.0294 18.0215C76.1118 16.8779 75.9576 15.7297 75.5765 14.6484C75.1953 13.567 74.5953 12.5759 73.814 11.7368C73.0123 10.9748 72.068 10.3786 71.0354 9.98223C70.0028 9.5859 68.9021 9.39726 67.7964 9.42712C66.9204 9.42133 66.0478 9.53767 65.2039 9.77278C63.555 10.3985 62.1293 11.5004 61.1081 12.9384C60.0869 14.3764 59.5164 16.0856 59.4691 17.8487C59.4645 18.7369 59.6133 19.6193 59.909 20.4569C60.448 21.9351 61.3064 23.2763 62.4229 24.3848C62.6272 24.6048 63.0043 25.0604 63.0043 25.0604C63.6942 25.8511 64.064 26.8709 64.0413 27.92C63.1303 28.3008 62.2481 28.7471 61.4017 29.2555H60.6632C57.4632 29.2844 54.3148 30.0648 51.4718 31.5337H50.8904C46.3338 31.5383 41.8153 32.3633 37.5511 33.9691C37.4436 34.0152 37.352 34.092 37.2878 34.1897C37.2235 34.2875 37.1894 34.402 37.1897 34.519C37.1734 34.5914 37.1734 34.6665 37.1897 34.7389C37.2334 34.8494 37.3091 34.9442 37.4071 35.0114C37.5051 35.0786 37.6208 35.115 37.7396 35.116H37.9596C42.0881 33.5825 46.4549 32.7899 50.859 32.775H51.6132C51.7073 32.7708 51.7989 32.7438 51.8803 32.6964C54.5851 31.2884 57.5827 30.535 60.6318 30.4967H61.4959C61.6033 30.4824 61.7087 30.4561 61.8102 30.4182C63.0847 29.6285 64.4656 29.0254 65.911 28.627C66.0909 28.5785 66.275 28.5469 66.4609 28.5328H66.8223H66.9323C67.0706 28.5315 67.2042 28.4822 67.3102 28.3934C67.4162 28.3045 67.4881 28.1817 67.5136 28.0457V27.9357C67.5161 27.7988 67.4701 27.6654 67.3839 27.5591C67.2977 27.4527 67.1767 27.3802 67.0422 27.3544C66.8489 27.3364 66.6543 27.3364 66.4609 27.3544C66.2067 27.3679 65.9542 27.4047 65.7067 27.4643C65.5206 27.493 65.3369 27.535 65.1568 27.59C65.0731 26.4349 64.6278 25.3355 63.8842 24.4477C63.8842 24.4477 63.4442 23.9292 63.2242 23.6935C62.2117 22.7081 61.4379 21.5043 60.9617 20.174C60.7096 19.4682 60.5821 18.7239 60.5847 17.9744C60.6314 16.5068 61.1011 15.084 61.9373 13.8771C62.7735 12.6701 63.9406 11.7305 65.2982 11.1711C68.4406 14.4863 69.2576 18.6971 69.2576 23.0336C69.2576 24.1649 69.2576 25.3118 69.1162 26.4588C69.1553 27.1532 69.3203 27.8346 69.6033 28.4699C70.254 30.1625 70.7791 31.9008 71.1745 33.6705C71.3473 34.3776 71.6458 35.446 71.8972 36.3416C72.0386 36.7972 72.1486 37.2057 72.2429 37.5042C72.2429 37.5042 72.3843 37.9599 72.4314 38.0541L72.8399 38.4941L73.1856 38.7926C73.1721 38.9179 73.1721 39.0444 73.1856 39.1697H72.8556C72.4065 39.161 71.9611 39.2523 71.5515 39.4368C70.6403 40.0181 69.9804 42.7363 69.9804 42.752C69.4717 44.6986 69.1818 46.6959 69.1162 48.7068C69.1313 50.0976 69.2946 51.4828 69.6033 52.839C70.467 55.3332 72.2713 57.3912 74.6311 58.5738C72.7299 62.2819 69.8232 63.853 67.4036 63.853C66.7242 63.8547 66.0512 63.7212 65.4239 63.4602C64.24 63.0942 63.1845 62.3991 62.3805 61.4561C61.5766 60.513 61.0573 59.3609 60.8832 58.1339C60.7255 57.3689 60.6466 56.5897 60.6475 55.8086C60.7077 53.5876 61.1269 51.391 61.8887 49.3038C61.9036 49.2313 61.9036 49.1565 61.8887 49.0839C61.8895 48.9451 61.8391 48.8109 61.7473 48.7068C61.0938 47.712 60.7796 46.5325 60.8518 45.3445C60.8534 44.6861 60.9112 44.029 61.0246 43.3805C61.0795 43.2663 61.1166 43.1445 61.1346 43.0191C61.143 42.8844 61.1078 42.7505 61.0343 42.6373C60.9607 42.5241 60.8526 42.4376 60.7261 42.3906H60.5375C60.4366 42.3915 60.3376 42.4178 60.2497 42.4673C60.1618 42.5167 60.0878 42.5877 60.0347 42.6734C59.9589 42.8273 59.906 42.9914 59.8776 43.1605C59.8776 43.2705 59.8776 43.4119 59.8776 43.5847C57.9029 42.3123 55.7956 41.2586 53.5929 40.4424C53.5256 40.4274 53.4559 40.4274 53.3886 40.4424C53.2672 40.4402 53.148 40.4752 53.0469 40.5425C52.9458 40.6099 52.8677 40.7065 52.823 40.8194C52.8155 40.8873 52.8155 40.9558 52.823 41.0237C52.8209 41.1451 52.8558 41.2643 52.9232 41.3654C52.9906 41.4665 53.0871 41.5446 53.2001 41.5893C55.4796 42.4362 57.6438 43.5658 59.6419 44.9517C59.5629 46.4549 59.9174 47.9492 60.6632 49.2567C59.8978 51.3749 59.4838 53.6039 59.4377 55.8557C59.4332 56.7321 59.5228 57.6065 59.7048 58.4639C59.9291 59.8663 60.5385 61.179 61.4651 62.2554C62.3917 63.3318 63.599 64.1297 64.9526 64.5601C65.7157 64.8914 66.5403 65.0574 67.3722 65.0471C70.3103 65.0471 73.6569 63.1617 75.7623 58.9509V58.841C76.2208 58.8412 76.6729 58.7335 77.0821 58.5267C77.3027 58.3883 77.4819 58.1929 77.6006 57.9611C78.2392 58.5578 78.9397 59.0846 79.6903 59.5323C80.8955 60.2128 82.2502 60.5852 83.634 60.6164C85.4026 60.561 87.1102 59.957 88.5204 58.8881L88.9132 58.6053L89.3845 58.0868C90.5265 56.3417 91.1227 54.2959 91.0971 52.2105C90.9892 48.8827 89.8955 45.6618 87.9547 42.9563V42.862C87.7643 42.1304 87.5281 41.4115 87.2477 40.7095C87.1063 40.3795 86.9806 40.081 86.8706 39.861C86.7606 39.641 86.7135 39.5782 86.7135 39.5625C87.232 38.3213 89.4316 34.4876 89.8559 33.3877C90.3426 32.7692 90.8674 32.1814 91.4271 31.628C91.6313 31.628 92.0241 31.3923 92.574 31.1723L94.4909 30.4182C98.2449 29.2393 101.683 27.2249 104.546 24.5262L106.118 23.5835C113.534 21.2582 117.399 18.2729 122.694 12.9152C123.231 12.8445 123.762 12.7289 124.281 12.5695C124.776 12.3178 125.305 12.1379 125.852 12.0353C126.449 11.8782 126.889 11.7996 126.999 11.7525C128.406 10.9301 129.631 9.8287 130.597 8.51583C131.052 7.95021 131.414 7.416 131.665 7.03892L131.964 6.58327L132.058 6.42616C132.812 5.57771 134.839 2.96954 135.342 2.3882C135.639 1.97201 135.818 1.48352 135.86 0.974136C135.822 0.696852 135.689 0.441427 135.483 0.25139ZM83.0526 54.4573C82.9102 54.721 82.7473 54.9732 82.5656 55.2115C82.2827 55.5886 81.89 55.9343 81.6071 55.9343C80.949 55.7446 80.3875 55.3122 80.0359 54.7244C78.6884 52.0365 77.7157 49.1765 77.145 46.2243C76.5505 44.422 76.176 42.5545 76.0294 40.6623C76.0075 40.2503 76.0718 39.8383 76.218 39.4525V39.3582C76.3111 39.1659 76.4501 38.9994 76.6227 38.8733C76.7953 38.7473 76.9962 38.6656 77.2078 38.6355C77.881 38.734 78.504 39.0482 78.9833 39.5311C79.5017 39.9867 79.8788 40.4424 79.8945 40.4424C81.1986 41.7936 83.9168 45.1559 83.9011 48.2983C83.9989 50.386 83.7113 52.4739 83.0526 54.4573Z" fill="white"/>
</svg>
