<svg width="50" height="50" viewBox="0 0 50 50" fill="none" xmlns="http://www.w3.org/2000/svg">
<path d="M25 0C21.5482 0 18.75 2.79822 18.75 6.25V13.4152C18.75 14.087 18.3206 14.6836 17.6835 14.8969L4.03779 19.4653C1.62583 20.2728 0 22.5317 0 25.0752V26.3622C0 26.5355 0.0144003 26.7084 0.0430521 26.8792C0.328547 28.5813 1.93982 29.7297 3.64194 29.4442L18.8861 26.8873L19.7721 38.3701L14.9876 42.0414C14.1494 42.6845 13.6929 43.7077 13.7742 44.7611L13.8883 46.2403C13.9194 46.6436 14.0285 47.037 14.2096 47.3987C14.9821 48.942 16.8595 49.5669 18.4028 48.7944L24.9905 45.4969L31.5996 48.7979C31.9606 48.9782 32.353 49.0868 32.7553 49.1179C34.476 49.2508 35.9788 47.9636 36.1117 46.2429L36.2304 44.7062C36.3118 43.6521 35.8547 42.6282 35.0155 41.9851L30.2323 38.3197L31.1139 26.9077L46.3597 29.4565C46.53 29.485 46.7024 29.4993 46.875 29.4993C48.6009 29.4993 50 28.1002 50 26.3743V25.0952C50 22.5572 48.3796 20.3027 45.9741 19.4936L32.3144 14.8995C31.6784 14.6856 31.25 14.0895 31.25 13.4185V6.25C31.25 2.79822 28.4518 0 25 0ZM25 3.125C26.7259 3.125 28.125 4.52411 28.125 6.25V13.4185C28.125 15.4315 29.4102 17.2197 31.3182 17.8614L44.9779 22.4556C46.1114 22.8368 46.875 23.8992 46.875 25.0952V26.3743L31.6291 23.8255C29.9269 23.5409 28.3162 24.6901 28.0316 26.3924C28.0164 26.4834 28.0052 26.575 27.9981 26.667L27.1166 38.079C27.0352 39.1332 27.4923 40.157 28.3315 40.8001L33.1147 44.4655L32.996 46.0022L26.3868 42.7012C25.5068 42.2617 24.4713 42.2622 23.5917 42.7025L17.004 45.9999L16.8899 44.5206L21.6745 40.8494C22.5127 40.2062 22.9692 39.1831 22.8879 38.1297L22.0018 26.6469C21.869 24.9261 20.3664 23.6388 18.6456 23.7716C18.553 23.7787 18.4608 23.79 18.3691 23.8053L3.125 26.3622V25.0752C3.125 23.8753 3.89201 22.8096 5.02989 22.4287L18.6756 17.8602C20.5868 17.2204 21.875 15.4306 21.875 13.4152V6.25C21.875 4.52411 23.2741 3.125 25 3.125Z" fill="white"/>
</svg>
