<svg width="160" height="160" viewBox="0 0 160 160" fill="none" xmlns="http://www.w3.org/2000/svg">
<path d="M152.8 48.8C140 18.4 110.4 0 80 0C69.6 0 59.2 2.4 48.8 6.4C8.79999 23.2 -10.4 70.4 6.39999 110.4C19.2 140.8 48.8 159.2 79.2 159.2C89.6 159.2 100 156.8 110.4 152.8C151.2 136 170.4 89.6 152.8 48.8ZM104.8 138.4C96.8 141.6 88.8 143.2 80 143.2C54.4 143.2 31.2 128 21.6 104.8C7.99999 72.8 23.2 35.2 55.2 21.6C63.2 18.4 71.2 16.8 80 16.8C105.6 16.8 128.8 32 138.4 55.2C152 87.2 136.8 124.8 104.8 138.4ZM125.6 61.6C135.2 86.4 124 115.2 98.4 125.6C92 128 85.6 129.6 79.2 129.6C60 129.6 41.6 118.4 33.6 99.2C23.2 73.6 34.4 44.8 60 33.6C66.4 31.2 72.8 29.6 79.2 29.6C94.4 29.6 108.8 36.8 118.4 48L89.6 76.8C89.6 77.6 90.4 78.4 90.4 79.2C90.4 84.8 85.6 89.6 80 89.6C74.4 89.6 69.6 84.8 69.6 79.2C69.6 73.6 74.4 68.8 80 68.8C80.8 68.8 80.8 68.8 81.6 68.8L102.4 48C96 43.2 88.8 40.8 80.8 40.8C76 40.8 70.4 41.6 66.4 44C47.2 52 38.4 74.4 46.4 93.6C52 108 66.4 116.8 81.6 116.8C86.4 116.8 92 116 96 113.6C113.6 106.4 122.4 87.2 117.6 69.6L125.6 61.6Z" fill="white"/>
</svg>
