<svg width="52" height="44" viewBox="0 0 52 44" fill="none" xmlns="http://www.w3.org/2000/svg">
<path d="M2 42H6.70588M6.70588 42H30.2353M6.70588 42V9.52988C6.70588 6.89433 6.70588 5.57558 7.2188 4.56894C7.66995 3.68346 8.38934 2.96407 9.27482 2.51292C10.2815 2 11.6002 2 14.2358 2H22.7064C25.3419 2 26.6579 2 27.6645 2.51292C28.5499 2.96407 29.2718 3.68346 29.7228 4.56894C30.2353 5.57459 30.2353 6.89174 30.2353 9.52214V23.1765M30.2353 42H44.3529M30.2353 42V23.1765M30.2353 23.1765C30.2353 20.9838 30.2353 19.888 30.5934 19.0233C31.0711 17.8701 31.9866 16.9535 33.1398 16.4759C34.0045 16.1176 35.1009 16.1176 37.2934 16.1176C39.4861 16.1176 40.5838 16.1176 41.4485 16.4759C42.6016 16.9535 43.5169 17.8701 43.9946 19.0233C44.3527 19.888 44.3529 20.9838 44.3529 23.1765V42M44.3529 42H49.0588M13.7647 18.4706H23.1765M13.7647 11.4118H23.1765" stroke="white" stroke-width="4" stroke-linecap="round" stroke-linejoin="round"/>
</svg>
