<svg width="50" height="50" viewBox="0 0 50 50" fill="none" xmlns="http://www.w3.org/2000/svg">
<path d="M6.25 29.1667V20.8333C6.25 12.9766 6.25 9.04823 8.69077 6.60744C11.1316 4.16667 15.0599 4.16667 22.9167 4.16667H27.0833C34.94 4.16667 38.8685 4.16667 41.3092 6.60744C42.67 7.96826 43.2721 9.79144 43.5385 12.5M43.75 20.8333V29.1667C43.75 37.0233 43.75 40.9519 41.3092 43.3925C38.8685 45.8333 34.94 45.8333 27.0833 45.8333H22.9167C15.0599 45.8333 11.1316 45.8333 8.69077 43.3925C7.32998 42.0317 6.72785 40.2085 6.46144 37.5" stroke-width="4" stroke-linecap="round"/>
<path d="M16.6667 29.1667H27.0834" stroke-width="4" stroke-linecap="round"/>
<path d="M16.6667 20.8333H18.75M33.3334 20.8333H25"  stroke-width="4" stroke-linecap="round"/>
</svg>
