<svg width="50" height="50" viewBox="0 0 50 50" fill="none" xmlns="http://www.w3.org/2000/svg">
<path d="M48.2143 3.57143H37.5C37.4607 3.57143 37.4286 3.59107 37.3911 3.59286C36.2286 1.58571 34.95 0.480357 34.8571 0.403572C34.5375 0.142857 34.1375 0 33.725 0H16.2732C15.8607 0 15.4607 0.142857 15.1429 0.405357C15.05 0.482143 13.7696 1.5875 12.6089 3.59464C12.5714 3.59107 12.5393 3.57143 12.5 3.57143H1.78572C1.27679 3.57143 0.79286 3.7875 0.45536 4.16607C0.116074 4.54464 -0.0446402 5.05 0.010717 5.55357C0.61786 11.0196 4.59465 21.5143 15.2143 23.0089C16.3714 24.6589 17.7375 26.3268 19.3411 28.0143C19.4268 28.1054 19.5411 28.1536 19.6411 28.2232V32.1429H16.0696C15.0839 32.1429 14.2839 32.9411 14.2839 33.9286V39.2857H10.7143C9.72857 39.2857 8.92857 40.0839 8.92857 41.0714V48.2143C8.92857 49.2018 9.72857 50 10.7143 50H39.2857C40.2714 50 41.0714 49.2018 41.0714 48.2143V41.0714C41.0714 40.0839 40.2714 39.2857 39.2857 39.2857H35.7143V33.9286C35.7143 32.9411 34.9143 32.1429 33.9286 32.1429H30.3571V28.225C30.4589 28.1554 30.5714 28.1054 30.6571 28.0161C32.2589 26.3304 33.625 24.6607 34.7839 23.0107C45.4036 21.5161 49.3821 11.0214 49.9875 5.55536C50.0446 5.05179 49.8821 4.54643 49.5429 4.16786C49.2071 3.7875 48.7232 3.57143 48.2143 3.57143ZM3.93393 7.14286H11.1768C10.9696 7.95179 10.8018 8.80536 10.7429 9.75536C10.5625 12.6321 11.2036 15.6107 12.65 18.6732C6.88036 16.3375 4.69465 10.3107 3.93393 7.14286ZM37.5 46.4286H12.5V42.8571H16.0714H33.9286H37.5V46.4286ZM32.1429 39.2857H17.8571V35.7143H21.4286H28.5714H32.1429V39.2857ZM23.2143 32.1429V28.5714H26.7857V32.1429H23.2143ZM28.5893 25H28.5714H21.4286H21.4107C16.4411 19.6089 14.05 14.5839 14.3036 10.0554C14.4946 6.61964 16.1875 4.42679 16.9893 3.57143H33.0089C33.8161 4.43214 35.5054 6.62321 35.6964 10.0571C35.9482 14.5839 33.5571 19.6089 28.5893 25ZM37.3571 18.6589C38.8 15.6018 39.4375 12.6268 39.2571 9.75357C39.1982 8.80536 39.0304 7.95179 38.825 7.14286H46.0518C45.2714 10.2946 43.0554 16.3143 37.3571 18.6589Z" fill="white"/>
</svg>
