<svg width="321" height="47" viewBox="0 0 321 47" fill="none" xmlns="http://www.w3.org/2000/svg">
<path d="M18.54 46.1553C14.9367 46.1553 11.4592 45.7154 8.10732 44.8355C4.79736 43.9137 2.09492 42.7406 0 41.3161L4.08509 32.1403C6.05431 33.3973 8.31682 34.4447 10.8726 35.2827C13.4703 36.0788 16.0471 36.4768 18.6029 36.4768C20.3207 36.4768 21.7033 36.3302 22.7508 36.0369C23.7982 35.7017 24.5524 35.2827 25.0133 34.7799C25.5161 34.2352 25.7675 33.6068 25.7675 32.8945C25.7675 31.8889 25.3066 31.0929 24.3848 30.5063C23.4631 29.9197 22.269 29.4379 20.8025 29.0608C19.3361 28.6837 17.702 28.3066 15.9004 27.9295C14.1407 27.5525 12.36 27.0706 10.5584 26.484C8.79865 25.8975 7.18556 25.1433 5.71912 24.2215C4.25268 23.2579 3.05858 22.0219 2.13681 20.5135C1.21505 18.9633 0.75417 17.015 0.75417 14.6687C0.75417 12.0291 1.46644 9.64093 2.89098 7.50411C4.35742 5.3673 6.53614 3.64947 9.42712 2.35062C12.3181 1.05177 15.9214 0.402344 20.2369 0.402344C23.1279 0.402344 25.956 0.737531 28.7213 1.40791C31.5285 2.03638 34.0214 2.97909 36.2001 4.23604L32.3664 13.4746C30.2715 12.3434 28.1976 11.5054 26.1445 10.9607C24.0915 10.3741 22.1014 10.0809 20.174 10.0809C18.4562 10.0809 17.0736 10.2694 16.0261 10.6465C14.9786 10.9817 14.2245 11.4426 13.7636 12.0291C13.3027 12.6157 13.0723 13.2861 13.0723 14.0402C13.0723 15.0039 13.5122 15.779 14.3921 16.3656C15.3138 16.9103 16.5079 17.3712 17.9744 17.7482C19.4827 18.0834 21.1168 18.4396 22.8765 18.8167C24.6781 19.1937 26.4588 19.6756 28.2185 20.2621C30.0201 20.8068 31.6542 21.561 33.1206 22.5247C34.5871 23.4464 35.7602 24.6824 36.6401 26.2327C37.5618 27.741 38.0227 29.6474 38.0227 31.9518C38.0227 34.5076 37.2895 36.8748 35.8231 39.0535C34.3985 41.1904 32.2408 42.9082 29.3498 44.207C26.5007 45.5059 22.8974 46.1553 18.54 46.1553Z" fill="white"/>
<path d="M43.7708 45.2754V1.28221H56.2146V45.2754H43.7708Z" fill="white"/>
<path d="M65.0678 45.2754V1.28221H75.3119L93.5377 31.1976H88.1328L105.856 1.28221H116.1L116.226 45.2754H104.787L104.662 18.691H106.61L93.3491 40.939H87.8185L74.1806 18.691H76.5688V45.2754H65.0678Z" fill="white"/>
<path d="M125.031 45.2754V1.28221H135.275L159.534 30.5691H154.695V1.28221H166.887V45.2754H156.643L132.384 15.9885H137.223V45.2754H125.031Z" fill="white"/>
<path d="M197.85 46.1553C194.33 46.1553 191.083 45.5897 188.108 44.4584C185.134 43.3272 182.536 41.735 180.315 39.682C178.137 37.5871 176.44 35.157 175.225 32.3917C174.01 29.6264 173.402 26.5888 173.402 23.2788C173.402 19.9689 174.01 16.9312 175.225 14.1659C176.44 11.4007 178.137 8.9915 180.315 6.93848C182.536 4.84357 185.134 3.23048 188.108 2.09923C191.083 0.967971 194.33 0.402344 197.85 0.402344C201.411 0.402344 204.658 0.967971 207.591 2.09923C210.566 3.23048 213.143 4.84357 215.321 6.93848C217.5 8.9915 219.197 11.4007 220.412 14.1659C221.669 16.9312 222.297 19.9689 222.297 23.2788C222.297 26.5888 221.669 29.6474 220.412 32.4546C219.197 35.2198 217.5 37.629 215.321 39.682C213.143 41.735 210.566 43.3272 207.591 44.4584C204.658 45.5897 201.411 46.1553 197.85 46.1553ZM197.85 35.8483C199.526 35.8483 201.076 35.555 202.5 34.9685C203.967 34.3819 205.224 33.5439 206.271 32.4546C207.361 31.3233 208.199 29.9826 208.785 28.4323C209.414 26.8821 209.728 25.1643 209.728 23.2788C209.728 21.3515 209.414 19.6337 208.785 18.1253C208.199 16.5751 207.361 15.2553 206.271 14.1659C205.224 13.0347 203.967 12.1758 202.5 11.5892C201.076 11.0026 199.526 10.7093 197.85 10.7093C196.174 10.7093 194.603 11.0026 193.136 11.5892C191.712 12.1758 190.455 13.0347 189.365 14.1659C188.318 15.2553 187.48 16.5751 186.851 18.1253C186.265 19.6337 185.972 21.3515 185.972 23.2788C185.972 25.1643 186.265 26.8821 186.851 28.4323C187.48 29.9826 188.318 31.3233 189.365 32.4546C190.455 33.5439 191.712 34.3819 193.136 34.9685C194.603 35.555 196.174 35.8483 197.85 35.8483Z" fill="white"/>
<path d="M228.815 45.2754V1.28221H248.926C252.948 1.28221 256.405 1.93163 259.296 3.23048C262.229 4.52933 264.491 6.41475 266.083 8.88675C267.676 11.3169 268.472 14.2078 268.472 17.5597C268.472 20.8697 267.676 23.7397 266.083 26.1698C264.491 28.558 262.229 30.4015 259.296 31.7004C256.405 32.9573 252.948 33.5858 248.926 33.5858H235.728L241.259 28.3695V45.2754H228.815ZM256.028 45.2754L245.092 29.2493H258.353L269.352 45.2754H256.028ZM241.259 29.6893L235.728 23.9701H248.172C250.77 23.9701 252.697 23.4045 253.954 22.2733C255.253 21.142 255.902 19.5708 255.902 17.5597C255.902 15.5067 255.253 13.9146 253.954 12.7833C252.697 11.652 250.77 11.0864 248.172 11.0864H235.728L241.259 5.36729V29.6893Z" fill="white"/>
<path d="M275.337 45.2754V1.28221H296.139C300.999 1.28221 305.273 2.18302 308.96 3.98465C312.647 5.78628 315.517 8.32113 317.57 11.5892C319.665 14.8573 320.713 18.7538 320.713 23.2788C320.713 27.7619 319.665 31.6585 317.57 34.9685C315.517 38.2365 312.647 40.7714 308.96 42.573C305.273 44.3746 300.999 45.2754 296.139 45.2754H275.337ZM287.781 35.3455H295.636C298.15 35.3455 300.329 34.8847 302.173 33.9629C304.058 32.9992 305.524 31.6166 306.572 29.815C307.619 27.9714 308.143 25.7927 308.143 23.2788C308.143 20.723 307.619 18.5443 306.572 16.7427C305.524 14.9411 304.058 13.5794 302.173 12.6576C300.329 11.6939 298.15 11.2121 295.636 11.2121H287.781V35.3455Z" fill="white"/>
</svg>
