<svg width="954" height="258" viewBox="0 0 954 258" fill="none" xmlns="http://www.w3.org/2000/svg">
<g clip-path="url(#clip0_5_187)">
<path d="M751.63 124.22H774.4V21.14H815.06V1.83H711.17V21.14H751.83L751.63 124.22ZM659.33 1.83V84.78L591.83 1.83H573.13V124.22H595.7V41.47L663.2 124.22H681.9V1.83H659.33ZM312.28 124.22H399.09V104.91H335.05V1.83H312.28V124.22ZM210.22 106.13C185.42 106.13 167.12 88.04 167.12 63.03C167.12 38.02 185.42 19.93 210.22 19.93C235.02 19.93 253.32 38.02 253.32 63.03C253.32 88.04 234.82 106.13 210.22 106.13ZM210.22 126.05C248.24 126.05 276.09 99.42 276.09 63.02C276.09 26.62 248.04 0 210.22 0C172.4 0 144.35 26.84 144.35 63.03C144.35 99.22 172.2 126.06 210.22 126.06V126.05ZM456.02 78.07L508.07 92.71L509.49 95.96L521.69 124.22H545.48L490.17 1.83H467.81L412.71 124.22H436.09L448.09 95.96L456.02 78.07ZM501.76 78.07H455.81L478.78 24.6L501.75 78.07H501.76ZM864.05 78.07L916.3 92.71L929.92 124.22H953.71L898.42 1.83H876.06L820.96 124.22H844.34L856.34 95.96L864.07 78.07H864.05ZM910 78.07H864.05L886.82 24.6C894.55 42.49 902.27 60.38 910 78.07ZM106.33 1.83L65.26 96.16L24.6 1.83H0L53.47 124.22H75.83L129.1 1.83H106.33Z" fill="white"/>
<path d="M270.62 172.93V185.51C270.62 187.04 269.37 188.28 267.85 188.28H264.86C256.54 188.34 249.89 194.99 249.89 203.25V232.31C249.9 233.83 248.69 235.07 247.16 235.08H234.52C233 235.09 231.76 233.88 231.75 232.35V203.41C231.75 185.05 246.67 170.14 265.02 170.14H267.85C269.37 170.12 270.61 171.34 270.62 172.85C270.62 172.87 270.62 172.89 270.62 172.91V172.93Z" fill="white"/>
<path d="M159.04 203.76C159.04 184.9 173.6 171.51 193.51 171.51C213.42 171.51 227.86 184.9 227.86 203.76C227.86 222.62 213.42 236.01 193.51 236.01C173.6 236.01 159.04 222.62 159.04 203.76ZM209.46 203.76C209.46 192.94 202.59 186.41 193.51 186.41C184.43 186.41 177.44 192.93 177.44 203.76C177.44 214.59 184.43 221.11 193.51 221.11C202.59 221.11 209.46 214.59 209.46 203.76Z" fill="white"/>
<path d="M379.94 233.92L369.25 218.97C368.36 217.72 366.63 217.44 365.38 218.33C365.15 218.5 364.94 218.7 364.76 218.93L353.65 233.95C353.13 234.66 352.3 235.08 351.42 235.08H338.63C336.33 235.08 335.03 232.44 336.43 230.62L355.85 205.19C356.6 204.2 356.61 202.84 355.87 201.84L337.16 176.86C335.79 175.03 337.09 172.43 339.38 172.43H352.8C353.69 172.43 354.53 172.86 355.05 173.57L365.27 187.65C366.17 188.89 367.91 189.17 369.15 188.27C369.38 188.11 369.58 187.9 369.74 187.68L380.28 173.54C380.81 172.84 381.63 172.43 382.5 172.43H394.85C397.14 172.43 398.44 175.05 397.06 176.88L378.43 201.38C377.68 202.37 377.68 203.74 378.43 204.73L398.02 230.62C399.4 232.45 398.1 235.06 395.81 235.06H382.2C381.31 235.06 380.47 234.63 379.95 233.9L379.94 233.92Z" fill="white"/>
<path d="M311.56 171.53C305.95 171.53 301.13 172.75 297.08 175.36C295.19 176.58 292.7 175.36 292.7 173.08V151.9C292.7 150.37 291.45 149.14 289.92 149.14C289.77 149.14 289.63 149.15 289.48 149.18L276.89 151.07C275.51 151.29 274.51 152.45 274.51 153.79V232.31C274.51 233.84 275.76 235.08 277.28 235.08H289.48C290.81 235.08 291.86 233.97 291.86 232.64V227.87C296.41 233.36 303.17 236.02 311.55 236.02C329.12 236.02 342.77 223.44 342.77 203.75C342.77 184.06 329.13 171.53 311.55 171.53H311.56ZM308.4 221.11C299.31 221.11 292.49 214.57 292.49 203.75C292.49 192.93 299.31 186.39 308.4 186.39C317.49 186.39 324.37 192.94 324.37 203.75C324.37 214.56 317.49 221.11 308.4 221.11Z" fill="white"/>
<path d="M399.81 229.82C399.81 226.91 402.17 224.55 405.08 224.55C407.99 224.55 410.35 226.91 410.35 229.82C410.35 232.73 407.99 235.09 405.08 235.09C402.17 235.09 399.81 232.73 399.81 229.82ZM409.36 229.82C409.36 227.45 407.44 225.53 405.07 225.53C402.7 225.53 400.78 227.45 400.78 229.82C400.78 232.19 402.7 234.11 405.07 234.11C407.44 234.11 409.36 232.19 409.36 229.82ZM403.29 227.33H405.62C406.35 227.33 407.14 227.86 407.14 228.85C407.14 229.51 406.78 230.01 406.3 230.26L407.34 232.19H406.39L405.48 230.45H404.14V232.19H403.29V227.33ZM405.35 229.79C405.8 229.79 406.22 229.46 406.22 228.86C406.22 228.26 405.79 228 405.37 228H404.14V229.78H405.35V229.79Z" fill="white"/>
<path d="M28.0501 232.79H17.6301C16.0801 232.79 14.8201 231.53 14.8201 229.98V153.09C14.8201 151.54 16.0801 150.28 17.6301 150.28H28.3201C29.5401 150.28 30.5301 151.27 30.5301 152.49V177.49C30.5301 178.61 31.8701 179.09 32.6601 178.3C37.1401 173.83 42.9201 171.56 48.9601 171.56C64.1701 171.56 75.4301 183.43 75.4301 202.98C75.4301 222.53 64.0501 234.27 48.9601 234.27C41.7801 234.27 35.2301 231.05 30.5301 225.24V230.52C30.5301 232.99 28.0501 232.78 28.0501 232.78V232.79ZM30.5301 212.63C30.5301 213.27 30.7101 213.91 31.1201 214.4C33.9401 217.83 39.3001 220.3 44.0201 220.3C53.1701 220.3 59.2301 213.37 59.2301 202.98C59.2301 192.59 53.1701 185.54 44.0201 185.54C39.2801 185.54 33.9001 188.13 31.0901 191.69C30.7001 192.18 30.5301 192.8 30.5301 193.43V212.63Z" fill="white" stroke="white" stroke-width="1.4" stroke-miterlimit="10"/>
<path d="M81.53 254.29L83.32 243.53C83.62 241.98 85.24 242.62 85.24 242.62C86.34 242.89 87.55 243.05 88.51 243.05C92.59 243.05 95.31 241.94 96.8 238.72L99.03 233.65L76 176.07C75.42 174.62 76.49 173.04 78.05 173.04H90.08C91 173.04 91.83 173.61 92.15 174.47L105.13 209.08C105.85 210.99 108.55 210.99 109.27 209.08L122.25 174.47C122.57 173.61 123.4 173.04 124.32 173.04H136.46C138.03 173.04 139.09 174.62 138.51 176.08L111.66 242.56C107.21 253.81 99.29 256.78 89.02 257.03C87.66 257.03 85.15 256.83 83.14 256.52C80.81 256.17 81.54 254.29 81.54 254.29H81.53Z" fill="white" stroke="white" stroke-width="1.4" stroke-miterlimit="10"/>
</g>
<defs>
<clipPath id="clip0_5_187">
<rect width="953.72" height="257.73" fill="white"/>
</clipPath>
</defs>
</svg>
