<svg width="61" height="54" viewBox="0 0 61 54" fill="none" xmlns="http://www.w3.org/2000/svg">
<path d="M41.8872 11.375C43.6038 9.45703 46.0984 8.25 48.875 8.25C54.0528 8.25 58.25 12.4473 58.25 17.625C58.25 22.8028 54.0528 27 48.875 27H2M19.2164 4.08334C20.3609 2.80469 22.024 2 23.875 2C27.3269 2 30.125 4.79822 30.125 8.25C30.125 11.7018 27.3269 14.5 23.875 14.5H2M28.5916 49.9166C29.7359 51.1953 31.3991 52 33.25 52C36.7019 52 39.5 49.2019 39.5 45.75C39.5 42.2981 36.7019 39.5 33.25 39.5H2" stroke="white" stroke-width="4" stroke-linecap="round" stroke-linejoin="round"/>
</svg>
