<svg xmlns="http://www.w3.org/2000/svg" viewBox="0 0 220.24 41.37">
    <defs>
        <style>.cls-1{fill:#fff;}</style>
    </defs>
    <title>LOGO_AEROSOFT_black_horizonal</title>
    <g id="Ebene_2" data-name="Ebene 2">
        <g id="Ebene_2-2" data-name="Ebene 2">
            <path class="cls-1"
                d="M79.3,33.9H73.24l-1.33,4.37H66.59l6.86-20.63h6.12l6.56,20.63H80.39ZM76.46,21.84h0l-2.22,8.1h4.08Z" />
            <path class="cls-1"
                d="M89.85,17.64H102.5v4.08H95.29v4h6.86v4.08H95.29v4.43h7.59v4.08h-13Z" />
            <path class="cls-1"
                d="M115.68,32.42c-.53-2-1.45-2.22-2.33-2.22h-.3v8.07H107.5V17.64h8.24c4.17,0,6.53,1.75,6.53,5.56a4.71,4.71,0,0,1-4,4.73V28c1.18.38,2,.94,2.78,3.81L123,38.27h-5.73Zm-1.24-6.18A2.22,2.22,0,0,0,116.72,24a2.18,2.18,0,0,0-2.37-2.43h-1.53v4.64Z" />
            <path class="cls-1"
                d="M135.87,17.29c4.49,0,9.16,3,9.16,10.67s-4.67,10.66-9.16,10.66-9.16-3-9.16-10.66S131.37,17.29,135.87,17.29Zm-.06,17.37h0c2.33,0,3.45-2.63,3.45-6.7s-1.12-6.71-3.45-6.71-3.49,2.69-3.49,6.71S133.47,34.66,135.81,34.66Z" />
            <path class="cls-1"
                d="M150,33.3a10.72,10.72,0,0,0,4.67,1.25c2.1,0,2.84-.92,2.84-2.22S156.55,30.59,155,30l-1.21-.48c-3.4-1.33-4.44-3.16-4.44-6.08,0-3.91,3.14-6.12,7.51-6.12a14.24,14.24,0,0,1,5.2.83l-.24,4a10.1,10.1,0,0,0-4.25-1c-1.66,0-2.66.68-2.66,1.95,0,1.06.53,1.54,2.36,2.36l2.49,1.13a5.21,5.21,0,0,1,3.48,5.23c0,4.52-3.25,6.82-8.06,6.82a21.43,21.43,0,0,1-5.5-.79Z" />
            <path class="cls-1"
                d="M176.65,17.29c4.49,0,9.16,3,9.16,10.67s-4.67,10.66-9.16,10.66-9.16-3-9.16-10.66S172.16,17.29,176.65,17.29Zm-.06,17.37h0c2.34,0,3.46-2.63,3.46-6.7s-1.12-6.71-3.46-6.71-3.49,2.69-3.49,6.71S174.26,34.66,176.59,34.66Z" />
            <path class="cls-1" d="M190.69,17.64h12.17v4.08h-6.73v4.2h6.44V30h-6.44v8.27h-5.44Z" />
            <path class="cls-1" d="M210.25,21.84h-4.43v-4.2h14.42v4.2h-4.43V38.27h-5.56Z" />
            <path class="cls-1"
                d="M33.05,25.48l-.35,0a7,7,0,0,0-1,.07,26,26,0,0,1-3.37.28,9.45,9.45,0,0,1-3.5-.65l-.13,0a.39.39,0,0,0-.36.25.3.3,0,0,0,0,.13.38.38,0,0,0,.24.36,9.93,9.93,0,0,0,3.74.69h0a27.31,27.31,0,0,0,3.48-.28,7.88,7.88,0,0,1,.87-.06H33a.37.37,0,0,0,.38-.34v0A.37.37,0,0,0,33.05,25.48Zm-9.29-.69h-.05a34,34,0,0,1-4.79.4,18.61,18.61,0,0,1-7.43-1.68,1.66,1.66,0,0,0-.24,0c-.19,0-.55-.05-.94-.05a3.33,3.33,0,0,0-1,.12h0A5.36,5.36,0,0,1,8,23.84a.73.73,0,0,1-.22,0,10.11,10.11,0,0,1-2.32-1,9.88,9.88,0,0,0-2.17-.92l-.76-.18c-.34-.08-.77-.18-1.13-.28L1,21.34a6.19,6.19,0,0,1,.83-.21,13.41,13.41,0,0,1,2-.25l.44,0a8.15,8.15,0,0,1,4,1.14,2.92,2.92,0,0,0,1.36.28l.6,0a.38.38,0,0,0,.35-.38v0a.39.39,0,0,0-.38-.36h-.05l-.52,0a2.31,2.31,0,0,1-1-.19,8.69,8.69,0,0,0-4.29-1.22H3.78a15.47,15.47,0,0,0-2,.25,6.41,6.41,0,0,0-1.13.29c-.32.13-.58.24-.67.51a.77.77,0,0,0,0,.15.53.53,0,0,0,.08.27c.3.45,1.07.59,2.31.89l.75.17a9.73,9.73,0,0,1,2,.86,10.63,10.63,0,0,0,2.5,1A1.74,1.74,0,0,0,8,24.6a5.5,5.5,0,0,0,1.47-.32h0a3,3,0,0,1,.79-.08c.35,0,.69,0,.88,0h.09A19.08,19.08,0,0,0,19,25.94a34.68,34.68,0,0,0,4.87-.4.37.37,0,0,0,.32-.37v-.05A.39.39,0,0,0,23.76,24.79ZM11,22.32h.1a25.37,25.37,0,0,1,6.48-.93,15.87,15.87,0,0,1,5.34.87.25.25,0,0,0,.12,0,.39.39,0,0,0,.36-.25.3.3,0,0,0,0-.13.38.38,0,0,0-.25-.35,16.64,16.64,0,0,0-5.59-.92,26.52,26.52,0,0,0-6.68.95.38.38,0,0,0-.28.37.38.38,0,0,0,0,.1A.38.38,0,0,0,11,22.32ZM86.13.16a.37.37,0,0,0-.3-.16h-.09a17.3,17.3,0,0,0-4.33,1.74A4.61,4.61,0,0,0,80.17,3L80,3.3a1.26,1.26,0,0,0-.1.15A10.36,10.36,0,0,0,78,4.79c-.34.28-.64.55-.87.76l-.34.31h0C69.84,7.44,66.91,9,62.3,12.44a15.46,15.46,0,0,0-6,2l-.6,0A8.74,8.74,0,0,0,51,15.81l-1.23.64H48a7.17,7.17,0,0,0-.16-.72c0-.16-.16-.56-.16-.57a12.75,12.75,0,0,0,.61-3.69,5.31,5.31,0,0,0-1.41-4,5.35,5.35,0,0,0-3.83-1.47,6,6,0,0,0-1.65.22,5.66,5.66,0,0,0-3.65,5.14,4.91,4.91,0,0,0,.28,1.66,6.81,6.81,0,0,0,1.6,2.5c.13.14.37.43.37.43a2.68,2.68,0,0,1,.66,1.82,13,13,0,0,0-1.68.85h-.47a13,13,0,0,0-5.85,1.45h-.37a24.16,24.16,0,0,0-8.49,1.55.38.38,0,0,0-.23.35.32.32,0,0,0,0,.14.38.38,0,0,0,.35.24l.14,0a23.81,23.81,0,0,1,8.21-1.49h.48a.37.37,0,0,0,.17-.05,12.4,12.4,0,0,1,5.57-1.4h.55a.92.92,0,0,0,.2-.05,10,10,0,0,1,2.61-1.14,1.9,1.9,0,0,1,.35-.06l.23,0h.07a.38.38,0,0,0,.37-.31v-.07a.37.37,0,0,0-.3-.37,2,2,0,0,0-.37,0,2.65,2.65,0,0,0-.48.07,2.49,2.49,0,0,0-.35.08,3.51,3.51,0,0,0-.81-2s-.28-.33-.42-.48a5.9,5.9,0,0,1-1.44-2.24,4.12,4.12,0,0,1-.24-1.4,4.85,4.85,0,0,1,3-4.33c2,2.11,2.52,4.79,2.52,7.55,0,.72,0,1.45-.09,2.18a3.65,3.65,0,0,0,.31,1.28,23.5,23.5,0,0,1,1,3.31c.11.45.3,1.13.46,1.7.09.29.16.55.22.74,0,0,.09.29.12.35l.26.28.22.19a1.12,1.12,0,0,0,0,.24h-.21a1.93,1.93,0,0,0-.83.17c-.58.37-1,2.1-1,2.11A17.21,17.21,0,0,0,43.89,31a12.46,12.46,0,0,0,.31,2.63,6.44,6.44,0,0,0,3.2,3.65c-1.21,2.36-3.06,3.36-4.6,3.36a3.26,3.26,0,0,1-1.26-.25A4.16,4.16,0,0,1,38.65,37a7.29,7.29,0,0,1-.15-1.48,13.11,13.11,0,0,1,.79-4.14.35.35,0,0,0,0-.14.36.36,0,0,0-.09-.24,3.51,3.51,0,0,1-.57-2.14,7.36,7.36,0,0,1,.11-1.25.79.79,0,0,0,.07-.23.4.4,0,0,0-.26-.4l-.12,0a.38.38,0,0,0-.32.18,1.12,1.12,0,0,0-.1.31c0,.07,0,.16,0,.27a20.6,20.6,0,0,0-4-2,.3.3,0,0,0-.13,0,.38.38,0,0,0-.36.24.59.59,0,0,0,0,.13.38.38,0,0,0,.24.36,18.5,18.5,0,0,1,4.1,2.14,5,5,0,0,0,.65,2.74,13.15,13.15,0,0,0-.78,4.2,7.8,7.8,0,0,0,.17,1.66,4.88,4.88,0,0,0,3.34,3.88,3.75,3.75,0,0,0,1.54.31c1.87,0,4-1.2,5.34-3.88l0-.07a1.86,1.86,0,0,0,.84-.2.92.92,0,0,0,.33-.36,7.8,7.8,0,0,0,1.33,1,5.35,5.35,0,0,0,2.51.69,5.43,5.43,0,0,0,3.11-1.1l.25-.18.3-.33a6.68,6.68,0,0,0,1.09-3.74,10.7,10.7,0,0,0-2-5.89v-.06a11.51,11.51,0,0,0-.45-1.37c-.09-.21-.17-.4-.24-.54s-.1-.18-.1-.19c.33-.79,1.73-3.23,2-3.93a12.09,12.09,0,0,1,1-1.12c.13,0,.38-.15.73-.29l1.22-.48a16.57,16.57,0,0,0,6.4-3.75l1-.6h0c4.72-1.48,7.18-3.38,10.55-6.79A6.17,6.17,0,0,0,79,8a3.73,3.73,0,0,1,1-.34c.38-.1.66-.15.73-.18a7.61,7.61,0,0,0,2.29-2.06c.29-.36.52-.7.68-.94l.19-.29.06-.1c.48-.54,1.77-2.2,2.09-2.57a1.81,1.81,0,0,0,.33-.9A.77.77,0,0,0,86.13.16ZM52.76,34.66a3.66,3.66,0,0,1-.31.48c-.18.24-.43.46-.61.46h0a1.72,1.72,0,0,1-1-.77A20.94,20.94,0,0,1,49,29.42a15,15,0,0,1-.71-3.54,1.89,1.89,0,0,1,.12-.77l0-.06a.83.83,0,0,1,.63-.46h0a2,2,0,0,1,1.13.57c.33.29.57.58.58.58.83.86,2.56,3,2.55,5A10.83,10.83,0,0,1,52.76,34.66Z" />
        </g>
    </g>
</svg>