<?xml version="1.0" ?>
<!DOCTYPE svg  PUBLIC '-//W3C//DTD SVG 1.1//EN'  'http://www.w3.org/Graphics/SVG/1.1/DTD/svg11.dtd'>
<!-- Uploaded to: SVG Repo, www.svgrepo.com, Generator: SVG Repo Mixer Tools -->
<svg fill="#000000" width="800px" height="800px" viewBox="0 0 846.66 846.66" style="shape-rendering:geometricPrecision; text-rendering:geometricPrecision; image-rendering:optimizeQuality; fill-rule:evenodd; clip-rule:evenodd" version="1.1" xml:space="preserve" xmlns="http://www.w3.org/2000/svg" xmlns:xlink="http://www.w3.org/1999/xlink">
<defs>
<style type="text/css">
   <![CDATA[
    .fil0 {fill:black;fill-rule:nonzero}
   ]]>
  </style>
</defs>
<g id="Layer_x0020_1">
<path class="fil0" d="M386.6 86.76c-23.11,43.51 -18.98,108.26 -18.98,155.21 0,10.91 -8.37,19.24 -20.31,19.29 -78.31,0.28 -196.11,25.09 -241.83,64.89 -14.9,12.98 -7.56,46.07 16.11,46.07l226.71 0c10.67,0 19.32,8.65 19.32,19.32 0,75.55 -2.14,115.67 10.49,190.82 1.88,11.21 -6.07,21.67 -18.49,22.44 -33.07,2.04 -98.03,28.18 -101.14,50.21 -3.3,23.4 -0.54,32.76 21.31,32.76l108.07 0c9.1,0 16.73,6.3 18.78,14.77 5.88,19.54 11.63,36.73 16.69,50.98 5.14,-14.49 11,-32 16.99,-51.95 2.49,-8.37 10.17,-13.78 18.48,-13.78l0 -0.02 108.07 0c21.86,0 24.61,-9.36 21.31,-32.76 -1.14,-8.02 -13.07,-18.57 -30.63,-28.38 -19.84,-11.07 -45.56,-19.6 -71.64,-21.94 -11.14,-0.98 -19.16,-11.27 -17.32,-22.32l-0.04 -0.01c12.63,-74.46 10.49,-115.95 10.49,-190.82 0,-10.67 8.65,-19.32 19.32,-19.32l226.71 0c23.67,0 31.01,-33.09 16.11,-46.07 -48.24,-41.99 -160.85,-62.54 -243.35,-64.94 -10.45,-0.29 -18.73,-8.85 -18.72,-19.24l-0.07 0c0,-46.94 4.13,-111.7 -18.98,-155.21 -19.4,-36.55 -54.05,-36.55 -73.46,0zm86.44 639.64c-16.71,53.12 -32.08,88.06 -32.13,88.16 -6.56,14.86 -28.31,15.52 -35.16,0 -0.05,-0.1 -15.42,-35.04 -32.13,-88.16l-93.83 0c-49.62,0 -65.53,-33.82 -59.48,-76.67 5.97,-42.33 71.99,-72.1 116.7,-80.52 -9.05,-62.1 -8.02,-97.09 -8.02,-158.36l-207.4 0c-59.51,0 -83.02,-77.63 -41.46,-113.82 52.15,-45.41 162.42,-68.81 248.86,-73.5 0,-47.75 -2.27,-106.35 23.5,-154.88 33.95,-63.92 107.72,-63.93 141.68,0 25.77,48.53 23.5,107.13 23.5,154.88 86.44,4.69 196.71,28.09 248.86,73.5 41.56,36.19 18.05,113.82 -41.46,113.82l-207.4 0c0,61.27 1.03,96.26 -8.02,158.36 44.71,8.42 110.73,38.2 116.7,80.52 6.05,42.85 -9.85,76.67 -59.48,76.67l-93.83 0z"/>
</g>
</svg>