<svg width="277" height="361" viewBox="0 0 277 361" fill="none" xmlns="http://www.w3.org/2000/svg">
<path d="M12.495 332V246.182H33.2372V315.155H68.9389V332H12.495ZM100.419 246.182V332H79.6767V246.182H100.419ZM132.925 246.182L152.117 309.037H152.83L172.021 246.182H195.236L166.281 332H138.666L109.711 246.182H132.925ZM204.475 332V246.182H264.314V263.027H225.218V280.626H261.255V297.513H225.218V315.155H264.314V332H204.475Z" fill="#1a4860"/>
<path d="M15.4318 209V200.909L32.4091 186.045C33.6818 184.894 34.7652 183.841 35.6591 182.886C36.553 181.917 37.2348 180.947 37.7045 179.977C38.1742 178.992 38.4091 177.924 38.4091 176.773C38.4091 175.485 38.1288 174.386 37.5682 173.477C37.0076 172.553 36.2348 171.841 35.25 171.341C34.2652 170.841 33.1364 170.591 31.8636 170.591C30.5758 170.591 29.447 170.856 28.4773 171.386C27.5076 171.902 26.75 172.652 26.2045 173.636C25.6742 174.621 25.4091 175.818 25.4091 177.227H14.75C14.75 174.061 15.4621 171.326 16.8864 169.023C18.3106 166.72 20.3106 164.947 22.8864 163.705C25.4773 162.447 28.4848 161.818 31.9091 161.818C35.4394 161.818 38.5076 162.409 41.1136 163.591C43.7197 164.773 45.7348 166.424 47.1591 168.545C48.5985 170.652 49.3182 173.098 49.3182 175.886C49.3182 177.659 48.9621 179.417 48.25 181.159C47.5379 182.902 46.2576 184.826 44.4091 186.932C42.5758 189.038 39.9697 191.561 36.5909 194.5L31.0227 199.636V199.932H49.8864V209H15.4318ZM75.4943 210.136C71.4337 210.136 67.9337 209.174 64.9943 207.25C62.0549 205.311 59.7898 202.53 58.1989 198.909C56.608 195.273 55.8201 190.902 55.8352 185.795C55.8504 180.689 56.6458 176.356 58.2216 172.795C59.8125 169.22 62.0701 166.5 64.9943 164.636C67.9337 162.758 71.4337 161.818 75.4943 161.818C79.5549 161.818 83.0549 162.758 85.9943 164.636C88.9489 166.5 91.2216 169.22 92.8125 172.795C94.4034 176.371 95.1913 180.705 95.1761 185.795C95.1761 190.917 94.3807 195.295 92.7898 198.932C91.1989 202.568 88.9337 205.348 85.9943 207.273C83.0701 209.182 79.5701 210.136 75.4943 210.136ZM75.4943 200.932C77.9186 200.932 79.8807 199.697 81.3807 197.227C82.8807 194.742 83.6231 190.932 83.608 185.795C83.608 182.432 83.267 179.659 82.5852 177.477C81.9034 175.28 80.9564 173.644 79.7443 172.568C78.5322 171.492 77.1155 170.955 75.4943 170.955C73.0852 170.955 71.1383 172.174 69.6534 174.614C68.1686 177.038 67.4186 180.765 67.4034 185.795C67.3883 189.205 67.714 192.03 68.3807 194.273C69.0625 196.515 70.017 198.189 71.2443 199.295C72.4716 200.386 73.8883 200.932 75.4943 200.932ZM184.119 209V200.909L201.097 186.045C202.369 184.894 203.453 183.841 204.347 182.886C205.241 181.917 205.922 180.947 206.392 179.977C206.862 178.992 207.097 177.924 207.097 176.773C207.097 175.485 206.816 174.386 206.256 173.477C205.695 172.553 204.922 171.841 203.938 171.341C202.953 170.841 201.824 170.591 200.551 170.591C199.263 170.591 198.134 170.856 197.165 171.386C196.195 171.902 195.438 172.652 194.892 173.636C194.362 174.621 194.097 175.818 194.097 177.227H183.438C183.438 174.061 184.15 171.326 185.574 169.023C186.998 166.72 188.998 164.947 191.574 163.705C194.165 162.447 197.172 161.818 200.597 161.818C204.127 161.818 207.195 162.409 209.801 163.591C212.407 164.773 214.422 166.424 215.847 168.545C217.286 170.652 218.006 173.098 218.006 175.886C218.006 177.659 217.65 179.417 216.938 181.159C216.225 182.902 214.945 184.826 213.097 186.932C211.263 189.038 208.657 191.561 205.278 194.5L199.71 199.636V199.932H218.574V209H184.119ZM223.364 201.273V192.5L242.432 162.455H250.227V174.364H245.705L234.545 192.045V192.409H262.159V201.273H223.364ZM245.841 209V198.591L246.068 194.75V162.455H256.591V209H245.841Z" fill="#1a4860"/>
<path d="M91.5455 64.6364H68.8182C68.5152 62.303 67.8939 60.197 66.9545 58.3182C66.0152 56.4394 64.7727 54.8333 63.2273 53.5C61.6818 52.1667 59.8485 51.1515 57.7273 50.4545C55.6364 49.7273 53.3182 49.3636 50.7727 49.3636C46.2576 49.3636 42.3636 50.4697 39.0909 52.6818C35.8485 54.8939 33.3485 58.0909 31.5909 62.2727C29.8636 66.4545 29 71.5151 29 77.4545C29 83.6364 29.8788 88.8182 31.6364 93C33.4242 97.1515 35.9242 100.288 39.1364 102.409C42.3788 104.5 46.2121 105.545 50.6364 105.545C53.1212 105.545 55.3788 105.227 57.4091 104.591C59.4697 103.955 61.2727 103.03 62.8182 101.818C64.3939 100.576 65.6818 99.0758 66.6818 97.3182C67.7121 95.5303 68.4242 93.5152 68.8182 91.2727L91.5455 91.4091C91.1515 95.5303 89.9546 99.5909 87.9546 103.591C85.9849 107.591 83.2727 111.242 79.8182 114.545C76.3636 117.818 72.1515 120.424 67.1818 122.364C62.2424 124.303 56.5758 125.273 50.1818 125.273C41.7576 125.273 34.2121 123.424 27.5455 119.727C20.9091 116 15.6667 110.576 11.8182 103.455C7.9697 96.3333 6.04545 87.6667 6.04545 77.4545C6.04545 67.2121 8 58.5303 11.9091 51.4091C15.8182 44.2879 21.1061 38.8788 27.7727 35.1818C34.4394 31.4848 41.9091 29.6364 50.1818 29.6364C55.8182 29.6364 61.0303 30.4242 65.8182 32C70.6061 33.5455 74.8182 35.8182 78.4545 38.8182C82.0909 41.7879 85.0455 45.4394 87.3182 49.7727C89.5909 54.1061 91 59.0606 91.5455 64.6364ZM104.42 124V30.9091H142.875C149.845 30.9091 155.86 32.2727 160.92 35C166.011 37.697 169.936 41.4697 172.693 46.3182C175.451 51.1364 176.83 56.7424 176.83 63.1364C176.83 69.5606 175.42 75.1818 172.602 80C169.814 84.7879 165.83 88.5 160.648 91.1364C155.466 93.7727 149.314 95.0909 142.193 95.0909H118.466V77.3636H138.011C141.405 77.3636 144.239 76.7727 146.511 75.5909C148.814 74.4091 150.557 72.7576 151.739 70.6364C152.92 68.4848 153.511 65.9848 153.511 63.1364C153.511 60.2576 152.92 57.7727 151.739 55.6818C150.557 53.5606 148.814 51.9242 146.511 50.7727C144.208 49.6212 141.375 49.0455 138.011 49.0455H126.92V124H104.42ZM187.92 124V30.9091H210.42V68.2727H247.102V30.9091H269.557V124H247.102V86.5909H210.42V124H187.92Z" fill="#1a4860"/>
<path d="M101 227L139.295 143L177 227L138.705 199.596L101 227Z" fill="#43C6E7"/>
</svg>
