<?xml version="1.0" encoding="UTF-8"?>
<svg version="1.1" xmlns="http://www.w3.org/2000/svg" width="512" height="512">
    <path
        d="M0 0 C3.375 1 3.375 1 4.8125 2.75 C5.375 5 5.375 5 5.375 10 C11.645 10 17.915 10 24.375 10 C24.375 18.25 24.375 26.5 24.375 35 C27.675 35 30.975 35 34.375 35 C37.51498671 35.28162071 40.61804102 35.60322485 43.74316406 35.99389648 C45.59951942 36.21378898 47.45595927 36.432969 49.31246948 36.65155029 C50.78731623 36.82733738 50.78731623 36.82733738 52.29195786 37.00667572 C112.61420963 44.10086013 172.04896366 46.84625686 232.75 46.6875 C246.19142237 46.65322983 259.63274462 46.62395884 273.07421875 46.63671875 C273.87634804 46.63735722 274.67847733 46.6379957 275.50491357 46.63865352 C303.33667074 46.67011524 330.89105574 47.79950408 358.5625 51 C359.77917988 51.14025919 359.77917988 51.14025919 361.02043915 51.2833519 C385.93737484 54.18745828 385.93737484 54.18745828 391.375 56 C391.375 78.11 391.375 100.22 391.375 123 C378.505 123 365.635 123 352.375 123 C352.32601563 120.12152344 352.27703125 117.24304688 352.2265625 114.27734375 C352.17247474 111.47398913 352.11519792 108.67071643 352.05761719 105.86743164 C352.01945341 103.92673911 351.98457905 101.98597889 351.953125 100.04516602 C351.90719974 97.24731332 351.84925172 94.44992162 351.7890625 91.65234375 C351.77173569 90.36129982 351.77173569 90.36129982 351.75405884 89.04417419 C351.60928828 83.06730721 351.35500442 77.42710219 347.4375 72.625 C344.24224746 70.1075283 341.56520506 69.86878539 337.6315918 69.82299805 C336.18945564 69.80374519 336.18945564 69.80374519 334.71818542 69.78410339 C333.68067642 69.77671646 332.64316742 69.76932953 331.57421875 69.76171875 C330.50508743 69.753647 329.43595612 69.74557526 328.33442688 69.73725891 C326.07070536 69.72342409 323.80696303 69.71269924 321.54321289 69.70483398 C318.08634826 69.68761876 314.63043939 69.64372584 311.17382812 69.59960938 C308.97396536 69.58948247 306.77409447 69.58096636 304.57421875 69.57421875 C303.54278244 69.55671066 302.51134613 69.53920258 301.44865417 69.52116394 C295.64075251 69.53866497 291.80682414 69.82249377 287.375 74 C281.29759382 89.19351545 284.74681119 106.64030764 284.375 123 C223.325 123 162.275 123 99.375 123 C99.045 108.48 98.715 93.96 98.375 79 C95.62273773 72.75336235 95.62273773 72.75336235 90.375 70 C86.69452585 69.57598269 83.04532955 69.57974551 79.34375 69.6015625 C78.2750769 69.59869232 77.20640381 69.59582214 76.10534668 69.59286499 C73.84935983 69.59082652 71.59335523 69.59634114 69.33740234 69.60888672 C65.88729269 69.62494279 62.43835453 69.60902996 58.98828125 69.58984375 C56.79426825 69.59182622 54.60025598 69.59566997 52.40625 69.6015625 C50.86076477 69.59245346 50.86076477 69.59245346 49.28405762 69.5831604 C42.33007308 69.6186678 42.33007308 69.6186678 36.375 73 C25.66952061 84.85249503 31.53275037 116.37448452 31.375 123 C-4.265 123 -39.905 123 -76.625 123 C-76.625 108.48 -76.625 93.96 -76.625 79 C-72.665 79 -68.705 79 -64.625 79 C-64.72288818 77.77120117 -64.82077637 76.54240234 -64.92163086 75.27636719 C-65.75710396 59.77999263 -61.78370748 47.54561482 -56.1875 33.25 C-55.37386045 31.09100673 -54.56329454 28.93085254 -53.75585938 26.76953125 C-52.28851115 22.87069985 -50.81178728 18.97620595 -49.29907227 15.09472656 C-48.9992897 14.32533752 -48.69950714 13.55594849 -48.39064026 12.76324463 C-47.625 11 -47.625 11 -46.625 10 C-43.7406618 9.91134792 -40.88037842 9.88478704 -37.99609375 9.90234375 C-36.69974754 9.90446617 -36.69974754 9.90446617 -35.37721252 9.90663147 C-32.60560708 9.91224761 -29.8340812 9.92480281 -27.0625 9.9375 C-25.1881522 9.94251292 -23.31380315 9.94707619 -21.43945312 9.95117188 C-16.83460456 9.96222228 -12.22981579 9.9794977 -7.625 10 C-7.65722656 9.06027344 -7.68945312 8.12054688 -7.72265625 7.15234375 C-7.625 4 -7.625 4 -6.0625 1.5625 C-3.625 0 -3.625 0 0 0 Z M-2.625 5 C-2.625 6.65 -2.625 8.3 -2.625 10 C-1.965 10 -1.305 10 -0.625 10 C-0.625 8.35 -0.625 6.7 -0.625 5 C-1.285 5 -1.945 5 -2.625 5 Z M-41.625 17 C-43.708125 22.445 -45.79125 27.89 -47.9375 33.5 C-48.58887939 35.20220703 -49.24025879 36.90441406 -49.91137695 38.65820312 C-50.43703237 40.03254419 -50.96266838 41.40689267 -51.48828125 42.78125 C-51.75362671 43.47444336 -52.01897217 44.16763672 -52.2923584 44.88183594 C-52.81663146 46.25297464 -53.33709099 47.62557882 -53.85334778 48.99975586 C-54.36894717 50.33627071 -54.91052118 51.66304436 -55.47709656 52.97875977 C-57.59583713 58.06038532 -58.02885982 62.39855305 -57.91796875 67.875 C-57.91494751 68.59429687 -57.91192627 69.31359375 -57.90881348 70.0546875 C-57.89329441 72.70327411 -57.85141251 75.35165378 -57.8125 78 C-57.750625 83.94 -57.68875 89.88 -57.625 96 C-39.475 96 -21.325 96 -2.625 96 C-0.58505859 89.97105469 -0.58505859 89.97105469 1.49609375 83.8203125 C2.57990837 80.61982088 3.66401277 77.41942776 4.7483139 74.21910095 C5.89359063 70.83854165 7.03835358 67.45781035 8.18188477 64.07666016 C9.49336402 60.19900444 10.80716383 56.32213851 12.12109375 52.4453125 C12.53153427 51.23070343 12.94197479 50.01609436 13.36485291 48.76467896 C13.74517166 47.64366791 14.12549042 46.52265686 14.51733398 45.36767578 C14.85264633 44.37728302 15.18795868 43.38689026 15.53343201 42.3664856 C16.375 40 16.375 40 17.375 38 C17.375 31.07 17.375 24.14 17.375 17 C-2.095 17 -21.565 17 -41.625 17 Z M22.375 42 C22.045 43.98 21.715 45.96 21.375 48 C42.825 48 64.275 48 86.375 48 C86.375 47.67 86.375 47.34 86.375 47 C79.02910791 46.28052327 71.68244407 45.56935791 64.33520508 44.86376953 C61.83958025 44.62313787 59.34413322 44.38065436 56.84887695 44.13623047 C53.24736776 43.783776 49.64525649 43.43814504 46.04296875 43.09375 C44.94043259 42.9843811 43.83789642 42.87501221 42.70195007 42.7623291 C35.90320807 42.12043574 29.20307378 41.86610474 22.375 42 Z M19.375 53 C16.23335521 60.76555208 16.23335521 60.76555208 13.36035156 68.63330078 C13.01568848 69.62692627 12.67102539 70.62055176 12.31591797 71.64428711 C11.96932129 72.65112549 11.62272461 73.65796387 11.265625 74.6953125 C10.93546387 75.64849365 10.60530273 76.6016748 10.26513672 77.58374023 C9.04914005 81.09658842 7.83730504 84.6108761 6.625 88.125 C2.54125 99.943125 2.54125 99.943125 -1.625 112 C-22.415 112.33 -43.205 112.66 -64.625 113 C-64.625 103.76 -64.625 94.52 -64.625 85 C-66.275 85 -67.925 85 -69.625 85 C-69.625 95.23 -69.625 105.46 -69.625 116 C-38.605 116 -7.585 116 24.375 116 C24.705 103.46 25.035 90.92 25.375 78 C31.375 66 31.375 66 40.375 63 C41.96838969 62.8933309 43.56574747 62.84139581 45.16259766 62.82299805 C46.62024033 62.80374519 46.62024033 62.80374519 48.10733032 62.78410339 C49.68228775 62.77302299 49.68228775 62.77302299 51.2890625 62.76171875 C52.37327484 62.753647 53.45748718 62.74557526 54.57455444 62.73725891 C56.87276614 62.72341998 59.17099837 62.71269698 61.46923828 62.70483398 C64.96557237 62.68766902 68.46094908 62.64378548 71.95703125 62.59960938 C74.1927014 62.58947794 76.42837957 62.58096325 78.6640625 62.57421875 C79.70188873 62.55671066 80.73971497 62.53920258 81.80899048 62.52116394 C89.5578858 62.54404725 96.11744557 63.82597261 101.8125 69.375 C110.02874148 83.17828569 105.9800783 100.99297521 106.375 116 C162.805 116 219.235 116 277.375 116 C277.705 103.13 278.035 90.26 278.375 77 C282.89085977 67.96828047 282.89085977 67.96828047 285.875 66.0625 C286.4421875 65.68222656 287.009375 65.30195313 287.59375 64.91015625 C291.06596152 63.13597799 294.4022238 62.86555549 298.26025391 62.80712891 C299.22871246 62.79106598 300.19717102 62.77500305 301.19497681 62.75845337 C305.6265572 62.71368128 310.05799193 62.67292283 314.48974609 62.64990234 C316.81927504 62.63337627 319.14875398 62.60613095 321.47802734 62.56787109 C324.85280421 62.51278247 328.22639503 62.49117687 331.6015625 62.4765625 C333.14585434 62.44255844 333.14585434 62.44255844 334.72134399 62.40786743 C341.85984303 62.42847263 347.46358777 63.86066544 353.375 68 C358.45508801 73.88021164 358.52900471 80.96204774 358.69140625 88.36328125 C358.71218735 89.15526413 358.73296844 89.94724701 358.75437927 90.76322937 C358.81947804 93.27956928 358.87857423 95.79600872 358.9375 98.3125 C358.980723 100.02409861 359.02433848 101.73568735 359.06835938 103.44726562 C359.17585315 107.63141014 359.27522065 111.81563601 359.375 116 C367.625 116 375.875 116 384.375 116 C384.375 98.18 384.375 80.36 384.375 62 C376.64195065 61.18111565 368.90883371 60.36292527 361.17553711 59.54638672 C358.55438907 59.26954996 355.9333083 58.99209819 353.31225586 58.71435547 C349.50645624 58.31114013 345.70050725 57.90935922 341.89453125 57.5078125 C340.75611282 57.3868924 339.6176944 57.26597229 338.44477844 57.14138794 C336.07690804 56.89210538 333.7084215 56.64862699 331.33944702 56.4100647 C328.52957505 56.11942409 325.72736693 55.80723398 322.92251587 55.47543335 C307.49798875 53.73203599 292.08061038 53.65102616 276.57805872 53.59529567 C272.65428401 53.57919905 268.73057868 53.55237561 264.80685425 53.52711487 C257.20626689 53.47996401 249.60566431 53.44318927 242.00500309 53.41032881 C235.86258492 53.38353844 229.72020234 53.35235806 223.57781982 53.31838989 C155.51031373 52.94318397 87.44332813 52.88053626 19.375 53 Z M-57.625 101 C-57.625 102.65 -57.625 104.3 -57.625 106 C-40.795 106 -23.965 106 -6.625 106 C-5.965 104.35 -5.305 102.7 -4.625 101 C-22.115 101 -39.605 101 -57.625 101 Z "
        fill="#000000" transform="translate(98.625,190)" />
    <path
        d="M0 0 C1.48683706 0.89160413 2.94948467 1.82581444 4.375 2.8125 C4.95636719 3.19664062 5.53773438 3.58078125 6.13671875 3.9765625 C11.93262551 8.26874534 15.68157492 14.67740714 17.08984375 21.69140625 C18.33238221 30.93384989 17.23042388 39.35826291 11.7265625 47.14453125 C10.02642261 49.1453509 8.26499716 50.99154383 6.375 52.8125 C5.611875 53.575625 4.84875 54.33875 4.0625 55.125 C-3.09263393 59.61775851 -11.31434801 60.83392091 -19.625 59.8125 C-28.61788139 57.74856001 -35.09240318 53.76721289 -40.44921875 46.25390625 C-45.60663766 37.39372505 -46.37323654 27.97924744 -43.95703125 18.07421875 C-40.89606599 10.33492231 -34.86093924 3.81536 -27.625 -0.1875 C-19.19201619 -3.54360788 -8.29891869 -4.01072362 0 0 Z M-32.1875 12.25 C-37.35482767 18.42715886 -38.09017776 23.68124036 -37.9296875 31.58984375 C-37.30687043 38.17733203 -34.64375644 42.10661807 -29.9375 46.625 C-24.33302937 51.15208626 -18.85220789 53.17050411 -11.625 52.8125 C-5.03124671 51.85881562 0.73254421 48.93548901 5.25 44 C9.26193016 37.98210475 11.42357564 32.09584968 10.375 24.8125 C9.00627113 19.55578768 6.69364532 15.094623 3.375 10.8125 C2.715 10.8125 2.055 10.8125 1.375 10.8125 C1.375 10.1525 1.375 9.4925 1.375 8.8125 C-10.31650396 2.10071069 -22.49561905 1.75192281 -32.1875 12.25 Z "
        fill="#000000" transform="translate(430.625,263.1875)" />
    <path
        d="M0 0 C7.50552346 4.35014013 13.80382001 10.40872579 16.09765625 18.984375 C17.70631911 29.29231176 17.05624877 38.4453252 11.3671875 47.33203125 C6.0023162 54.34899867 -0.95821714 57.91049102 -9.5 59.5625 C-17.63138706 60.48565903 -25.47861891 59.46554312 -32.2109375 54.60546875 C-37.10645461 50.39187851 -40.83291979 46.45230214 -43.5 40.5625 C-43.9125 39.675625 -44.325 38.78875 -44.75 37.875 C-47.0551303 27.69400784 -45.61736102 18.18009696 -40.09765625 9.30859375 C-30.4870436 -3.07476289 -14.0366216 -6.32711352 0 0 Z M-34.25 13.9375 C-38.31076034 20.1135117 -39.5316782 26.25477943 -38.5 33.5625 C-35.94734733 41.31162419 -31.69960106 46.88391763 -24.4375 50.625 C-17.82216904 53.27113238 -10.80058196 53.39517584 -4.19921875 50.58203125 C2.62279834 46.6121569 7.13121504 41.16754646 9.5 33.5625 C10.62919099 25.49685008 9.13787368 19.25512785 4.5 12.5625 C-0.42834888 6.76588122 -6.5848028 4.29977958 -14 3.1875 C-21.98556309 4.38533446 -29.2761257 7.37314264 -34.25 13.9375 Z "
        fill="#000000" transform="translate(178.5,263.4375)" />
    <path
        d="M0 0 C13.86 0 27.72 0 42 0 C42 16.17 42 32.34 42 49 C35.19375 49.103125 28.3875 49.20625 21.375 49.3125 C19.25755371 49.35802002 17.14010742 49.40354004 14.95849609 49.45043945 C3.95246302 49.5847585 -4.96672626 48.77339295 -15 44 C-14.41686746 38.5358156 -13.04888515 33.85221389 -11.09375 28.73046875 C-10.66660706 27.58714836 -10.66660706 27.58714836 -10.23083496 26.42073059 C-9.32715178 24.00711711 -8.41361451 21.5973692 -7.5 19.1875 C-6.88609433 17.55036422 -6.27280695 15.91299645 -5.66015625 14.27539062 C-1.21783918 2.43567836 -1.21783918 2.43567836 0 0 Z M4 4 C2.1455785 8.94682219 0.29314641 13.89429442 -1.55419922 18.84375 C-2.1835592 20.52810836 -2.81408897 22.21203009 -3.44580078 23.89550781 C-4.35234799 26.31201826 -5.25470972 28.73005537 -6.15625 31.1484375 C-6.5827887 32.28132706 -6.5827887 32.28132706 -7.01794434 33.43710327 C-8.48300316 37.11832947 -8.48300316 37.11832947 -9 41 C0.30368555 44.94347041 9.73416814 44.33854928 19.625 44.1875 C25.35875 44.125625 31.0925 44.06375 37 44 C37 30.8 37 17.6 37 4 C26.11 4 15.22 4 4 4 Z "
        fill="#000000" transform="translate(61,209)" />
    <path
        d="M0 0 C21.12 0 42.24 0 64 0 C64 6.6 64 13.2 64 20 C42.88 20 21.76 20 0 20 C0 13.4 0 6.8 0 0 Z M5 5 C5 8.3 5 11.6 5 15 C22.82 15 40.64 15 59 15 C59 11.7 59 8.4 59 5 C41.18 5 23.36 5 5 5 Z "
        fill="#000000" transform="translate(279,264)" />
    <path
        d="M0 0 C4.75814358 2.66873921 8.00029965 6.12589896 9.75 11.375 C10.25748917 17.59174229 10.5219833 23.14289413 6.75 28.375 C2.03551209 33.10063328 -1.56043709 35.4921573 -8.375 35.8125 C-14.69227468 35.76222991 -18.63760684 33.57983256 -23.25 29.375 C-27.1060573 24.31392479 -27.67605455 19.65930461 -27.25 13.375 C-25.14683661 6.95481702 -22.10663371 3.25778131 -16.5 -0.4375 C-10.7576971 -2.53564914 -5.61186124 -2.53063177 0 0 Z M-20.0625 9.0625 C-21.94632109 12.73099371 -22.47870985 16.26515329 -22.25 20.375 C-21.04045366 24.10383812 -19.00398654 26.70718335 -16.0625 29.3125 C-12.0430124 30.83097309 -8.49110897 31.0481919 -4.25 30.375 C0.13253554 28.18373223 2.91669816 25.95825461 4.75 21.375 C5.45599788 16.66834747 5.20316426 13.3161873 3.125 9 C-0.46825366 5.02850911 -3.45011818 3.59998523 -8.75 2.9375 C-13.71685012 3.55835626 -16.46772903 5.71564427 -20.0625 9.0625 Z "
        fill="#000000" transform="translate(425.25,274.625)" />
    <path
        d="M0 0 C5.0987807 2.92707781 8.14949906 6.53978077 10.8125 11.75 C11.86862234 17.73469325 11.64630177 23.57527763 8.3125 28.8125 C4.70181541 33.17627023 0.45683909 35.51833178 -5.15234375 36.28125 C-10.3589785 36.46915862 -14.26729722 36.00769968 -18.625 32.9375 C-23.53360692 27.94804543 -25.78311662 24.80538643 -25.9375 17.6875 C-25.88936691 12.2304104 -25.50959924 9.03207758 -21.625 4.9375 C-15.06317272 -1.11957134 -8.51369496 -2.49539335 0 0 Z M-19 9.5 C-21.18017813 14.11191527 -21.69193604 17.92685222 -20.625 22.9375 C-18.33645081 26.911971 -16.00017816 29.47910728 -11.625 30.9375 C-7.47267983 31.34184578 -3.76308375 31.342152 0.1875 29.9375 C3.80498127 26.63008855 6.10256377 22.79540946 6.57421875 17.84765625 C6.21444831 12.49221621 4.16281484 9.63722613 0.375 5.9375 C-6.14532742 1.15592656 -13.99320427 4.09793092 -19 9.5 Z "
        fill="#000000" transform="translate(171.625,274.0625)" />
    <path
        d="M0 0 C31.02 0 62.04 0 94 0 C94 1.65 94 3.3 94 5 C62.98 5 31.96 5 0 5 C0 3.35 0 1.7 0 0 Z "
        fill="#000000" transform="translate(270,250)" />
    <path
        d="M0 0 C1.65 0 3.3 0 5 0 C5 17.82 5 35.64 5 54 C3.35 54 1.7 54 0 54 C0 36.18 0 18.36 0 0 Z "
        fill="#000000" transform="translate(229,248)" />
    <path
        d="M0 0 C2.78251058 2.33371855 2.97502272 3.82828118 3.5 7.4375 C3 11 3 11 0.9375 13.9375 C-2.74062512 16.52001338 -4.59231863 16.72125695 -9 16 C-11.68601216 14.09151767 -12.7337462 12.67450962 -13.9375 9.625 C-14.02358207 6.00955305 -12.94320784 4.01532251 -11 1 C-7.52478498 -1.85464091 -4.1688413 -1.0611596 0 0 Z M-7 5 C-7.33 6.65 -7.66 8.3 -8 10 C-6.10820797 10.6814823 -6.10820797 10.6814823 -4 11 C-3.34 10.34 -2.68 9.68 -2 9 C-2.3185177 6.89179203 -2.3185177 6.89179203 -3 5 C-4.32 5 -5.64 5 -7 5 Z "
        fill="#000000" transform="translate(422,284)" />
    <path
        d="M0 0 C2.23759858 1.80451498 2.83522338 3.09835714 3.34765625 5.90234375 C3.63106754 9.80469927 3.47305237 11.4434678 0.875 14.5 C-2.53285587 16.27801176 -4.21545532 16.70960213 -8 16 C-10.875 13.9375 -10.875 13.9375 -13 11 C-13.53416903 7.19404569 -13.55569356 5.00554073 -11.6875 1.625 C-8.08559885 -1.8434974 -4.55940718 -1.05843381 0 0 Z M-7 5 C-7.33 6.32 -7.66 7.64 -8 9 C-6.11683841 10.10836423 -6.11683841 10.10836423 -4 11 C-3.34 10.67 -2.68 10.34 -2 10 C-2.33 8.35 -2.66 6.7 -3 5 C-4.32 5 -5.64 5 -7 5 Z "
        fill="#000000" transform="translate(169,284)" />
    <path
        d="M0 0 C5.28 0 10.56 0 16 0 C16 1.65 16 3.3 16 5 C10.72 5 5.44 5 0 5 C0 3.35 0 1.7 0 0 Z "
        fill="#000000" transform="translate(209,287)" />
    <path
        d="M0 0 C5.28 0 10.56 0 16 0 C16 1.65 16 3.3 16 5 C10.72 5 5.44 5 0 5 C0 3.35 0 1.7 0 0 Z "
        fill="#000000" transform="translate(209,279)" />
    <path
        d="M0 0 C5.28 0 10.56 0 16 0 C16 1.65 16 3.3 16 5 C10.72 5 5.44 5 0 5 C0 3.35 0 1.7 0 0 Z "
        fill="#000000" transform="translate(209,271)" />
    <path
        d="M0 0 C5.28 0 10.56 0 16 0 C16 1.65 16 3.3 16 5 C10.72 5 5.44 5 0 5 C0 3.35 0 1.7 0 0 Z "
        fill="#000000" transform="translate(209,263)" />
    <path
        d="M0 0 C5.28 0 10.56 0 16 0 C16 1.65 16 3.3 16 5 C10.72 5 5.44 5 0 5 C0 3.35 0 1.7 0 0 Z "
        fill="#000000" transform="translate(209,255)" />
    <path d="M0 0 C3.63 0 7.26 0 11 0 C11 1.65 11 3.3 11 5 C7.37 5 3.74 5 0 5 C0 3.35 0 1.7 0 0 Z "
        fill="#000000" transform="translate(237,250)" />
    <path d="M0 0 C3.3 0 6.6 0 10 0 C10 1.65 10 3.3 10 5 C6.7 5 3.4 5 0 5 C0 3.35 0 1.7 0 0 Z "
        fill="#000000" transform="translate(254,250)" />
</svg>