<svg width="654" height="94" viewBox="0 0 654 94" fill="none" xmlns="http://www.w3.org/2000/svg">
<path d="M38.448 93.792C31.1093 93.792 24.0267 92.896 17.2 91.104C10.4587 89.2267 4.95467 86.8373 0.688 83.936L9.008 65.248C13.0187 67.808 17.6267 69.9413 22.832 71.648C28.1227 73.2693 33.3707 74.08 38.576 74.08C42.0747 74.08 44.8907 73.7813 47.024 73.184C49.1573 72.5013 50.6933 71.648 51.632 70.624C52.656 69.5147 53.168 68.2347 53.168 66.784C53.168 64.736 52.2293 63.1147 50.352 61.92C48.4747 60.7253 46.0427 59.744 43.056 58.976C40.0693 58.208 36.7413 57.44 33.072 56.672C29.488 55.904 25.8613 54.9227 22.192 53.728C18.608 52.5333 15.3227 50.9973 12.336 49.12C9.34933 47.1573 6.91733 44.64 5.04 41.568C3.16267 38.4107 2.224 34.4427 2.224 29.664C2.224 24.288 3.67467 19.424 6.576 15.072C9.56267 10.72 14 7.22133 19.888 4.576C25.776 1.93066 33.1147 0.607994 41.904 0.607994C47.792 0.607994 53.552 1.29066 59.184 2.656C64.9013 3.936 69.9787 5.856 74.416 8.41599L66.608 27.232C62.3413 24.928 58.1173 23.2213 53.936 22.112C49.7547 20.9173 45.7013 20.32 41.776 20.32C38.2773 20.32 35.4613 20.704 33.328 21.472C31.1947 22.1547 29.6587 23.0933 28.72 24.288C27.7813 25.4827 27.312 26.848 27.312 28.384C27.312 30.3467 28.208 31.9253 30 33.12C31.8773 34.2293 34.3093 35.168 37.296 35.936C40.368 36.6187 43.696 37.344 47.28 38.112C50.9493 38.88 54.576 39.8613 58.16 41.056C61.8293 42.1653 65.1573 43.7013 68.144 45.664C71.1307 47.5413 73.52 50.0587 75.312 53.216C77.1893 56.288 78.128 60.1707 78.128 64.864C78.128 70.0693 76.6347 74.8907 73.648 79.328C70.7467 83.68 66.352 87.1787 60.464 89.824C54.6613 92.4693 47.3227 93.792 38.448 93.792ZM89.835 92V2.39999H115.179V92H89.835ZM133.21 92V2.39999H154.074L191.194 63.328H180.186L216.282 2.39999H237.146L237.402 92H214.106L213.85 37.856H217.818L190.81 83.168H179.546L151.77 37.856H156.634V92H133.21ZM255.335 92V2.39999H276.199L325.607 62.048H315.751V2.39999H340.583V92H319.719L270.311 32.352H280.167V92H255.335ZM403.644 93.792C396.476 93.792 389.863 92.64 383.804 90.336C377.745 88.032 372.455 84.7893 367.932 80.608C363.495 76.3413 360.039 71.392 357.564 65.76C355.089 60.128 353.852 53.9413 353.852 47.2C353.852 40.4587 355.089 34.272 357.564 28.64C360.039 23.008 363.495 18.1013 367.932 13.92C372.455 9.65333 377.745 6.368 383.804 4.064C389.863 1.75999 396.476 0.607994 403.644 0.607994C410.897 0.607994 417.511 1.75999 423.484 4.064C429.543 6.368 434.791 9.65333 439.228 13.92C443.665 18.1013 447.121 23.008 449.596 28.64C452.156 34.272 453.436 40.4587 453.436 47.2C453.436 53.9413 452.156 60.1707 449.596 65.888C447.121 71.52 443.665 76.4267 439.228 80.608C434.791 84.7893 429.543 88.032 423.484 90.336C417.511 92.64 410.897 93.792 403.644 93.792ZM403.644 72.8C407.057 72.8 410.215 72.2027 413.116 71.008C416.103 69.8133 418.663 68.1067 420.796 65.888C423.015 63.584 424.721 60.8533 425.916 57.696C427.196 54.5387 427.836 51.04 427.836 47.2C427.836 43.2747 427.196 39.776 425.916 36.704C424.721 33.5467 423.015 30.8587 420.796 28.64C418.663 26.336 416.103 24.5867 413.116 23.392C410.215 22.1973 407.057 21.6 403.644 21.6C400.231 21.6 397.031 22.1973 394.044 23.392C391.143 24.5867 388.583 26.336 386.364 28.64C384.231 30.8587 382.524 33.5467 381.244 36.704C380.049 39.776 379.452 43.2747 379.452 47.2C379.452 51.04 380.049 54.5387 381.244 57.696C382.524 60.8533 384.231 63.584 386.364 65.888C388.583 68.1067 391.143 69.8133 394.044 71.008C397.031 72.2027 400.231 72.8 403.644 72.8ZM466.71 92V2.39999H507.67C515.862 2.39999 522.902 3.72266 528.79 6.368C534.763 9.01333 539.371 12.8533 542.614 17.888C545.857 22.8373 547.478 28.7253 547.478 35.552C547.478 42.2933 545.857 48.1387 542.614 53.088C539.371 57.952 534.763 61.7067 528.79 64.352C522.902 66.912 515.862 68.192 507.67 68.192H480.79L492.054 57.568V92H466.71ZM522.134 92L499.862 59.36H526.87L549.27 92H522.134ZM492.054 60.256L480.79 48.608H506.134C511.425 48.608 515.35 47.456 517.91 45.152C520.555 42.848 521.878 39.648 521.878 35.552C521.878 31.3707 520.555 28.128 517.91 25.824C515.35 23.52 511.425 22.368 506.134 22.368H480.79L492.054 10.72V60.256ZM561.46 92V2.39999H603.828C613.727 2.39999 622.431 4.23466 629.94 7.904C637.449 11.5733 643.295 16.736 647.476 23.392C651.743 30.048 653.876 37.984 653.876 47.2C653.876 56.3307 651.743 64.2667 647.476 71.008C643.295 77.664 637.449 82.8267 629.94 86.496C622.431 90.1653 613.727 92 603.828 92H561.46ZM586.804 71.776H602.804C607.924 71.776 612.361 70.8373 616.116 68.96C619.956 66.9973 622.943 64.1813 625.076 60.512C627.209 56.7573 628.276 52.32 628.276 47.2C628.276 41.9947 627.209 37.5573 625.076 33.888C622.943 30.2187 619.956 27.4453 616.116 25.568C612.361 23.6053 607.924 22.624 602.804 22.624H586.804V71.776Z" fill="white"/>
</svg>
