<?xml version="1.0" encoding="UTF-8"?>
<svg version="1.1" xmlns="http://www.w3.org/2000/svg" width="2004" height="347">
<path d="M0 0 C19.14 0 38.28 0 58 0 C59.4782016 2.9564032 59.33590268 6.03156368 59.5 9.28125 C59.54060547 10.0093689 59.58121094 10.73748779 59.62304688 11.4876709 C59.75285869 13.82490772 59.87681674 16.16240518 60 18.5 C60.16381022 21.55224506 60.3303931 24.60432155 60.5 27.65625 C60.56078735 28.75296021 60.56078735 28.75296021 60.62280273 29.87182617 C60.93266125 35.26950015 61.39830459 40.62771958 62 46 C62.54301758 46.18062988 63.08603516 46.36125977 63.64550781 46.54736328 C82.82709149 52.97234148 82.82709149 52.97234148 91.58984375 58.03125 C94.67084507 59.26964275 95.90028592 59.18854067 99 58 C101.07782312 56.34347343 102.92527495 54.72295226 104.8125 52.875 C105.87964394 51.86398728 106.94735218 50.85356984 108.015625 49.84375 C108.52931641 49.35261719 109.04300781 48.86148438 109.57226562 48.35546875 C112.62098435 45.46106274 115.80833286 42.73399411 119 40 C119.91007812 39.18789063 120.82015625 38.37578125 121.7578125 37.5390625 C122.72460938 36.70117188 123.69140625 35.86328125 124.6875 35 C126.02361328 33.824375 126.02361328 33.824375 127.38671875 32.625 C130 31 130 31 132.3203125 31.10131836 C135.87715268 32.29416901 137.77453627 34.16806462 140.48828125 36.75390625 C141.00393143 37.24145889 141.5195816 37.72901154 142.05085754 38.2313385 C143.71184461 39.80958454 145.35708523 41.40296362 147 43 C147.54460876 43.52535339 148.08921753 44.05070679 148.65032959 44.59197998 C151.97116271 47.79818711 155.26164546 51.03310129 158.53149414 54.29125977 C160.21781533 55.96763656 161.91453139 57.63306296 163.61132812 59.29882812 C164.69335824 60.37434655 165.77476344 61.45049414 166.85546875 62.52734375 C167.35950729 63.01903549 167.86354584 63.51072723 168.38285828 64.01731873 C172.81489176 68.47816021 172.81489176 68.47816021 173 72 C171.65625 74.234375 171.65625 74.234375 169.5 76.75 C168.68015625 77.70777344 167.8603125 78.66554688 167.015625 79.65234375 C162.87333382 84.29754648 158.61033709 88.83402672 154.31835938 93.34082031 C152.53353348 95.2162892 150.76611246 97.10692893 149 99 C148.47212891 99.54060059 147.94425781 100.08120117 147.40039062 100.63818359 C144.68583564 103.55189244 144.68583564 103.55189244 143.94921875 107.33984375 C145.45064942 111.1408634 147.08994381 114.85682963 148.8125 118.5625 C151.73656673 124.93315823 154.1930076 131.13113541 156.015625 137.91015625 C156.75952613 140.11363651 156.75952613 140.11363651 158.56030273 140.6015625 C162.03322357 141.16874021 165.50950203 141.3125763 169.01953125 141.46484375 C170.61524597 141.5433846 172.21094875 141.62216831 173.80664062 141.70117188 C176.30789342 141.82053592 178.8092066 141.93735227 181.31079102 142.04956055 C183.73494568 142.15991261 186.15842967 142.28051957 188.58203125 142.40234375 C189.32081009 142.43263168 190.05958893 142.46291962 190.820755 142.49412537 C195.49816385 142.73657529 199.5406019 143.55648906 204 145 C204.02314782 152.26694473 204.04092756 159.53388154 204.05181217 166.80085564 C204.05703565 170.17503026 204.06412361 173.54917971 204.07543945 176.92333984 C204.08752436 180.80046259 204.09323263 184.6775494 204.09765625 188.5546875 C204.10281754 189.76929657 204.10797882 190.98390564 204.11329651 192.23532104 C204.11340981 193.91683762 204.11340981 193.91683762 204.11352539 195.63232422 C204.115746 196.62271698 204.11796661 197.61310974 204.12025452 198.6335144 C204 201 204 201 203 203 C200.7253418 203.39477539 200.7253418 203.39477539 197.69921875 203.59765625 C196.58522705 203.6764502 195.47123535 203.75524414 194.32348633 203.83642578 C193.12361084 203.91103027 191.92373535 203.98563477 190.6875 204.0625 C188.86931763 204.1860083 188.86931763 204.1860083 187.0144043 204.31201172 C176.68265483 204.99875518 166.34468083 205.55176982 156 206 C155.88825439 206.56412598 155.77650879 207.12825195 155.66137695 207.70947266 C154.58862806 212.85586279 153.18586102 217.51355181 151.1875 222.375 C150.92759277 223.01058838 150.66768555 223.64617676 150.39990234 224.30102539 C148.07732894 229.93217034 145.59030109 235.48701406 143 241 C144.28583984 242.37671875 144.28583984 242.37671875 145.59765625 243.78125 C156.81714261 255.8147892 156.81714261 255.8147892 161.30078125 261.06640625 C162.63652726 262.58639308 164.01912152 264.06522071 165.41796875 265.52734375 C166.24941406 266.40519531 167.08085937 267.28304688 167.9375 268.1875 C168.70964844 268.98542969 169.48179687 269.78335937 170.27734375 270.60546875 C172.33467627 273.4652076 172.42484806 274.55082555 172 278 C170.59101868 280.04389954 170.59101868 280.04389954 168.59106445 282.0559082 C167.47408928 283.19652458 167.47408928 283.19652458 166.33454895 284.36018372 C165.51903061 285.1655809 164.70351227 285.97097809 163.86328125 286.80078125 C163.03168991 287.63715622 162.20009857 288.47353119 161.3433075 289.33525085 C159.58145441 291.10050697 157.81326908 292.8594622 156.03930664 294.61254883 C153.32293664 297.30216615 150.63422868 300.01736863 147.94726562 302.73632812 C146.23337174 304.446918 144.51792748 306.15595621 142.80078125 307.86328125 C141.99538406 308.67879959 141.18998688 309.49431793 140.36018372 310.33454895 C139.5997728 311.07919907 138.83936188 311.82384918 138.0559082 312.59106445 C137.39194534 313.25104935 136.72798248 313.91103424 136.04389954 314.59101868 C133.49779938 316.34619671 132.03281789 316.3731835 129 316 C127.3671875 314.78515625 127.3671875 314.78515625 125.875 313.0625 C123.05130836 310.01972883 120.12317003 307.3997052 116.875 304.8125 C111.79277965 300.736869 107.02854851 296.40165896 102.32763672 291.89770508 C99.89231256 289.5954155 98.22159965 288.07386655 95 287 C93.04246653 287.6275724 93.04246653 287.6275724 91.0078125 288.73046875 C90.22591553 289.11936279 89.44401855 289.50825684 88.63842773 289.90893555 C87.39428101 290.54182495 87.39428101 290.54182495 86.125 291.1875 C79.26318582 294.6011073 72.88144719 297.21945545 65.37109375 298.85546875 C62.75720251 299.79956495 62.75720251 299.79956495 61.88696289 302.55371094 C60.87624704 306.48084138 60.58519656 310.25530285 60.4375 314.28515625 C60.40068115 315.06386581 60.3638623 315.84257538 60.32592773 316.6448822 C60.16970631 319.95324823 60.03332306 323.26235738 59.89550781 326.5715332 C59.79160485 328.99728604 59.67731176 331.42239915 59.5625 333.84765625 C59.53534912 334.59048355 59.50819824 335.33331085 59.48022461 336.09864807 C59.27666461 340.3665103 58.63595655 342.91010863 57 347 C38.19 347 19.38 347 0 347 C-1.8732807 342.31679826 -2.38305902 338.75702426 -2.5625 333.84765625 C-2.59931885 333.06990341 -2.6361377 332.29215057 -2.67407227 331.49082947 C-2.79102898 329.01501288 -2.89686568 326.5389285 -3 324.0625 C-3.13604385 320.80285121 -3.28341593 317.5439965 -3.4375 314.28515625 C-3.46465088 313.54435318 -3.49180176 312.80355011 -3.51977539 312.04029846 C-3.72491051 307.72007256 -4.18218971 303.94884327 -6 300 C-8.82579713 298.70497054 -11.22299542 297.85201687 -14.1875 297.0625 C-22.90417702 294.4761945 -30.87486921 291.05058143 -39 287 C-45.06915005 291.81639964 -50.9098102 296.76881765 -56.5625 302.0625 C-60.48650916 305.71032576 -64.41683524 309.34211331 -68.5 312.8125 C-69.62921875 313.78123047 -69.62921875 313.78123047 -70.78125 314.76953125 C-73 316 -73 316 -75.39091492 315.7913208 C-78.40828482 314.87616951 -79.73454729 313.77751315 -81.96411133 311.56933594 C-82.7045015 310.8447821 -83.44489166 310.12022827 -84.2077179 309.37371826 C-84.9912413 308.58523499 -85.77476471 307.79675171 -86.58203125 306.984375 C-87.39621017 306.17639465 -88.2103891 305.36841431 -89.04924011 304.53594971 C-90.76627014 302.82601949 -92.47817837 301.110933 -94.18530273 299.39111328 C-96.80446047 296.75808212 -99.44671365 294.14992421 -102.09179688 291.54296875 C-103.75666065 289.87905605 -105.42012099 288.21373767 -107.08203125 286.546875 C-107.87567581 285.76648865 -108.66932037 284.98610229 -109.48701477 284.18206787 C-110.21164413 283.4449054 -110.9362735 282.70774292 -111.68286133 281.94824219 C-112.32508133 281.30506042 -112.96730133 280.66187866 -113.62898254 279.99920654 C-115.35871074 277.47693091 -115.36221375 276.00022663 -115 273 C-113.73413086 271.09057617 -113.73413086 271.09057617 -111.96484375 269.29296875 C-111.31966797 268.62330078 -110.67449219 267.95363281 -110.00976562 267.26367188 C-109.32591797 266.57853516 -108.64207031 265.89339844 -107.9375 265.1875 C-106.61194573 263.82812393 -105.28772314 262.46744802 -103.96484375 261.10546875 C-103.30210449 260.42661621 -102.63936523 259.74776367 -101.95654297 259.04833984 C-98.85355799 255.79976934 -95.93160421 252.40263033 -93 249 C-91.68862661 247.49901497 -90.37615528 245.99898834 -89.0625 244.5 C-88.18271484 243.49453125 -88.18271484 243.49453125 -87.28515625 242.46875 C-86.86105469 241.9840625 -86.43695313 241.499375 -86 241 C-86.25168945 240.45698242 -86.50337891 239.91396484 -86.76269531 239.35449219 C-99 212.84967919 -99 212.84967919 -99 206 C-100.0737085 205.94465088 -101.14741699 205.88930176 -102.25366211 205.83227539 C-106.2738236 205.62433159 -110.29379498 205.41288836 -114.3137207 205.20043945 C-116.04674442 205.10932952 -117.77981694 205.01914252 -119.51293945 204.92993164 C-122.01787803 204.80082597 -124.52261672 204.66829597 -127.02734375 204.53515625 C-127.79022202 204.49656998 -128.55310028 204.4579837 -129.33909607 204.41822815 C-133.2101424 204.20918527 -137.07495905 203.94298417 -140.93579102 203.59155273 C-141.66693619 203.52677231 -142.39808136 203.46199188 -143.15138245 203.39524841 C-145 203 -145 203 -147 201 C-147.24723816 198.68493652 -147.24723816 198.68493652 -147.24291992 195.75585938 C-147.24599655 194.66132446 -147.24907318 193.56678955 -147.25224304 192.43908691 C-147.24505753 191.25262573 -147.23787201 190.06616455 -147.23046875 188.84375 C-147.23001053 187.63054077 -147.22955231 186.41733154 -147.2290802 185.1673584 C-147.22605474 182.59837874 -147.21815973 180.02940097 -147.20581055 177.46044922 C-147.18757645 173.51653583 -147.18530066 169.57285734 -147.18554688 165.62890625 C-147.18063102 163.13801879 -147.17480241 160.64713293 -147.16796875 158.15625 C-147.16685593 156.96978882 -147.1657431 155.78332764 -147.16459656 154.56091309 C-147.15821671 153.46637817 -147.15183685 152.37184326 -147.14526367 151.24414062 C-147.13954597 149.79424744 -147.13954597 149.79424744 -147.13371277 148.31506348 C-147 146 -147 146 -146 144 C-143.78540039 143.60522461 -143.78540039 143.60522461 -140.84765625 143.40234375 C-139.22935913 143.28451538 -139.22935913 143.28451538 -137.57836914 143.16430664 C-136.41813232 143.08946045 -135.25789551 143.01461426 -134.0625 142.9375 C-132.89001709 142.85298584 -131.71753418 142.76847168 -130.50952148 142.68139648 C-125.13346123 142.30256263 -119.76022848 141.9717301 -114.375 141.7578125 C-113.14124634 141.70572632 -113.14124634 141.70572632 -111.88256836 141.65258789 C-110.37082864 141.59388727 -108.85851224 141.54815506 -107.34594727 141.51733398 C-103.60071077 141.44023489 -103.60071077 141.44023489 -100.39355469 139.72192383 C-98.87348296 137.84367122 -98.16917328 136.28801825 -97.38671875 134.0078125 C-97.11093994 133.22575439 -96.83516113 132.44369629 -96.55102539 131.63793945 C-96.26606201 130.80866943 -95.98109863 129.97939941 -95.6875 129.125 C-92.87002115 121.17987622 -89.7131037 113.57581963 -86 106 C-86.68964844 105.24976562 -87.37929687 104.49953125 -88.08984375 103.7265625 C-93.35328368 97.99576378 -98.61029327 92.26041207 -103.78515625 86.44921875 C-105.34972879 84.71908297 -106.94403173 83.01561271 -108.55859375 81.33203125 C-109.38488281 80.45933594 -110.21117187 79.58664063 -111.0625 78.6875 C-111.81660156 77.90761719 -112.57070312 77.12773438 -113.34765625 76.32421875 C-115.34612573 73.51313284 -115.41039476 72.38382168 -115 69 C-113.59101868 66.95610046 -113.59101868 66.95610046 -111.59106445 64.9440918 C-110.84641434 64.18368088 -110.10176422 63.42326996 -109.33454895 62.63981628 C-108.51903061 61.8344191 -107.70351227 61.02902191 -106.86328125 60.19921875 C-106.03168991 59.36284378 -105.20009857 58.52646881 -104.3433075 57.66474915 C-102.58145441 55.89949303 -100.81326908 54.1405378 -99.03930664 52.38745117 C-96.32293664 49.69783385 -93.63422868 46.98263137 -90.94726562 44.26367188 C-89.23337174 42.553082 -87.51792748 40.84404379 -85.80078125 39.13671875 C-84.99538406 38.32120041 -84.18998688 37.50568207 -83.36018372 36.66545105 C-82.5997728 35.92080093 -81.83936188 35.17615082 -81.0559082 34.40893555 C-80.39194534 33.74895065 -79.72798248 33.08896576 -79.04389954 32.40898132 C-76.49749701 30.65359485 -75.03337248 30.638345 -72 31 C-70.27416992 32.08227539 -70.27416992 32.08227539 -68.73046875 33.59765625 C-68.15578857 34.14848877 -67.5811084 34.69932129 -66.98901367 35.2668457 C-66.39451416 35.85941162 -65.80001465 36.45197754 -65.1875 37.0625 C-63.93823014 38.26638313 -62.68823569 39.46951482 -61.4375 40.671875 C-60.84195313 41.25130859 -60.24640625 41.83074219 -59.6328125 42.42773438 C-57.12739753 44.8402452 -54.51238947 47.11125564 -51.86328125 49.36328125 C-50.44582272 50.60838634 -49.0760666 51.90803093 -47.73046875 53.23046875 C-46.95316406 53.97941406 -46.17585938 54.72835937 -45.375 55.5 C-44.68148437 56.1909375 -43.98796875 56.881875 -43.2734375 57.59375 C-41.05785656 59.24676758 -41.05785656 59.24676758 -38.265625 58.95703125 C-34.09977662 57.73617855 -30.29834441 56.02986728 -26.375 54.1875 C-19.35647529 50.97049665 -12.40841011 48.20799674 -5 46 C-4.11609764 41.31563827 -3.74878238 36.68666686 -3.53515625 31.93359375 C-3.4566811 30.38084414 -3.37789573 28.82811018 -3.29882812 27.27539062 C-3.17906256 24.8508143 -3.06197978 22.42619006 -2.95043945 20.0012207 C-2.84054902 17.64489321 -2.71984666 15.2893111 -2.59765625 12.93359375 C-2.56736832 12.21264023 -2.53708038 11.49168671 -2.50587463 10.74888611 C-2.27957314 6.5455091 -1.61393365 4.03483413 0 0 Z M-15.1875 135.27734375 C-26.64238256 148.66306826 -30.00796228 163.59388555 -29.1953125 180.69677734 C-28.06560542 194.01884808 -20.71576704 207.03405406 -11 216 C1.99809299 226.64273386 16.96835848 232.44862079 34 231 C50.77127411 228.14458307 65.44741902 221.1600991 75.75 207.1875 C85.26944734 192.80893801 88.4285366 177.20516775 85.3125 160.26171875 C80.38494513 143.11793409 70.2316144 130.5397191 54.77099609 121.90722656 C30.90590697 109.68187901 2.94209683 116.40313848 -15.1875 135.27734375 Z " fill="#FEFEFE" transform="translate(148,0)"/>
<path d="M0 0 C26.85375 -0.061875 53.7075 -0.12375 81.375 -0.1875 C94.05043213 -0.22846802 94.05043213 -0.22846802 106.98193359 -0.27026367 C117.37426758 -0.28381348 117.37426758 -0.28381348 122.25357056 -0.28633118 C125.63034084 -0.28910378 129.00696678 -0.30025583 132.38369751 -0.31672668 C136.71322199 -0.33755981 141.04254161 -0.34342703 145.37211156 -0.33921683 C146.94711881 -0.34009502 148.52213448 -0.34589072 150.09709811 -0.35764539 C172.64220579 -0.51786519 195.88298926 3.02184795 213.25 18.5625 C225.1241986 31.0963763 226.58463647 46.75762968 226.3125 63.11328125 C225.83005533 75.82770858 221.1604927 87.31417007 211.9375 96.25 C199.39538796 106.66668701 183.79664308 109.32233336 168 110 C168.33 110.66 168.66 111.32 169 112 C171.72171593 112.38188887 174.38937275 112.65538157 177.125 112.875 C196.9717753 114.82149551 214.65080767 120.90141386 228.02734375 136.33984375 C238.65831689 150.20730765 238.85556326 167.66418413 236.68652344 184.421875 C234.27649696 197.93281628 227.43687542 210.55209521 216.46484375 218.9375 C207.30812132 225.05076505 197.73922169 228.79618958 187.0625 231.25 C186.35988037 231.41330811 185.65726074 231.57661621 184.93334961 231.74487305 C172.92081683 234.30738288 160.59994653 234.14355858 148.37768555 234.11352539 C146.72407184 234.11321834 145.07045801 234.11335377 143.41684437 234.11389065 C139.02731769 234.11411447 134.63781882 234.10835966 130.24829865 234.10128021 C126.11462831 234.09554412 121.98096441 234.09531487 117.84729004 234.09460449 C105.79402308 234.08937739 93.74076118 234.07541613 81.6875 234.0625 C54.730625 234.041875 27.77375 234.02125 0 234 C0 156.78 0 79.56 0 0 Z M67 60 C67 69.24 67 78.48 67 88 C77.71822408 88.06781925 88.43630528 88.12284126 99.15469551 88.15543652 C104.13185737 88.17108183 109.10886462 88.19229949 114.0859375 88.22631836 C118.89051709 88.25895211 123.69494809 88.27686155 128.49962997 88.28463173 C130.33122979 88.29016801 132.16282162 88.30097907 133.99435806 88.31719017 C136.56298546 88.33901789 139.13100157 88.3419647 141.69970703 88.34057617 C142.83151649 88.35675491 142.83151649 88.35675491 143.9861908 88.3732605 C149.55845598 88.34073964 153.63489612 87.12043796 157.8125 83.375 C160.26771929 78.46456143 160.24961817 73.52267082 159.375 68.1875 C157.79926113 64.5346508 156.33235626 63.11320153 153 61 C149.30148687 59.76716229 145.89068897 59.86838653 142.0402832 59.88647461 C141.23029877 59.88632858 140.42031433 59.88618256 139.58578491 59.8860321 C136.90742315 59.886729 134.22913087 59.89451097 131.55078125 59.90234375 C129.69418882 59.90420872 127.8375959 59.90563225 125.98100281 59.90663147 C121.09344119 59.9104504 116.20590926 59.92027539 111.31835938 59.93133545 C106.33138429 59.94156296 101.34440442 59.94613197 96.35742188 59.95117188 C86.57159943 59.96189819 76.78580683 59.97948997 67 60 Z M67 143 C67 153.23 67 163.46 67 174 C78.57909927 174.06789729 90.15806534 174.12288624 101.73731899 174.15543652 C107.114587 174.17106251 112.49171122 174.19224474 117.86889648 174.22631836 C123.06252002 174.25902117 128.25600561 174.27687606 133.4497242 174.28463173 C135.42677035 174.29015566 137.40380933 174.30094241 139.38079643 174.31719017 C142.15954515 174.33910967 144.93773085 174.34196088 147.71655273 174.34057617 C148.93036621 174.35675491 148.93036621 174.35675491 150.16870117 174.3732605 C155.78022345 174.34319228 160.9014155 173.44793622 166 171 C169.70872172 166.4799954 170.31829495 161.85493861 170.2109375 156.08984375 C169.7233534 151.25914944 168.12729668 147.96697541 164.46469116 144.82525635 C159.99872958 142.47251426 156.65407762 142.46263515 151.68994141 142.54589844 C150.77222961 142.54531433 149.85451782 142.54473022 148.90899658 142.54412842 C145.889461 142.54690497 142.87092467 142.57797697 139.8515625 142.609375 C137.75264017 142.61683891 135.65371085 142.62253113 133.55477905 142.62652588 C128.04071687 142.64177034 122.5270787 142.68104226 117.01318359 142.7253418 C111.38254532 142.76631993 105.75183828 142.78454235 100.12109375 142.8046875 C89.08051327 142.8475375 78.04035829 142.91787798 67 143 Z " fill="#FEFEFE" transform="translate(926,56)"/>
<path d="M0 0 C22.11 0 44.22 0 67 0 C67 77.22 67 154.44 67 234 C46.54 234 26.08 234 5 234 C5 218.16 5 202.32 5 186 C4.01 186 3.02 186 2 186 C1.938125 187.216875 1.87625 188.43375 1.8125 189.6875 C0.65906244 199.86017849 -3.93467529 208.9015101 -10 217 C-10.5775 217.86625 -11.155 218.7325 -11.75 219.625 C-23.94048551 232.4927347 -42.11251778 236.66901031 -59.23828125 237.28515625 C-83.07690585 237.77187164 -106.87267689 234.50114393 -125.06030273 217.5300293 C-144.72350887 198.2702584 -150.73442265 172.66906347 -151.1875 145.9375 C-150.94706507 119.62323214 -144.89113383 94.04794799 -126.4453125 74.3515625 C-109.35836667 57.91970724 -87.20355711 53.49444605 -64.25 53.78515625 C-45.39169992 54.34082724 -27.72028756 59.79287272 -14.25 73.5625 C-7.58666579 81.7030071 -3.19873962 92.6027686 -2 103 C-1.34 103 -0.68 103 0 103 C0 69.01 0 35.02 0 0 Z M-77 124 C-83.98478905 132.45527096 -83.68752877 142.52073084 -83 153 C-81.89937235 160.45425087 -78.91662945 166.22923547 -73 171 C-63.83801443 175.93117788 -54.79308464 176.21262888 -44.61010742 176.24023438 C-42.46818016 176.2498621 -40.32724625 176.28088456 -38.18554688 176.3125 C-26.6715544 176.40100238 -15.06485425 175.843011 -6.3828125 167.43359375 C1.01299663 159.52467824 0.52051644 150.08587702 0.30859375 139.84765625 C-0.03372886 132.42877253 -1.77117385 126.78988454 -7.1875 121.5625 C-16.3315923 114.61612945 -28.07705625 114.79068531 -39.03808594 114.75976562 C-41.09872807 114.75012294 -43.15834382 114.71907711 -45.21875 114.6875 C-56.97349079 114.59224149 -68.26822708 115.37368328 -77 124 Z " fill="#FEFEFE" transform="translate(1726,56)"/>
<path d="M0 0 C22.11 0 44.22 0 67 0 C67.04898437 6.74179688 67.09796875 13.48359375 67.1484375 20.4296875 C67.1838439 24.71355622 67.21981541 28.99740539 67.2578125 33.28125 C67.31800273 40.07321297 67.37615732 46.86514874 67.421875 53.65722656 C67.45888561 59.13622369 67.50528766 64.61506977 67.55806351 70.09393692 C67.57652389 72.17895978 67.59166231 74.26401491 67.60334396 76.34908676 C67.62035016 79.28089449 67.64941852 82.21236254 67.68115234 85.14404297 C67.68331253 85.99641037 67.68547272 86.84877777 67.68769836 87.72697449 C67.81311961 96.86201976 68.78686534 105.88043986 75 113 C85.26340073 121.59975722 103.18461065 120.6550714 115.6796875 119.7265625 C123.91159798 118.84871289 132.43727973 117.78773113 138.42578125 111.50390625 C145.36214932 100.98584994 143.34677235 85.12401389 143.4140625 73.14453125 C143.43279783 71.0303219 143.45237296 68.91611984 143.4727478 66.80192566 C143.52382521 61.27009401 143.56358073 55.73823818 143.60089111 50.20629883 C143.64816644 43.55136859 143.70965871 36.89655602 143.76873779 30.24172211 C143.85665226 20.16119621 143.92662973 10.08068946 144 0 C165.78 0 187.56 0 210 0 C210 58.41 210 116.82 210 177 C189.54 177 169.08 177 148 177 C148 159.18 148 141.36 148 123 C147.01 123 146.02 123 145 123 C144.98582031 123.57105469 144.97164062 124.14210938 144.95703125 124.73046875 C144.04650184 140.20946878 136.17167201 154.05112563 124.96875 164.45703125 C106.96562277 179.87813102 83.63937778 181.01256595 61 180 C45.57392373 178.66934464 27.86391827 172.54468599 17 161 C3.63437844 144.87090996 -0.18175919 127.55869953 -0.11352539 107.05444336 C-0.11367142 105.89245422 -0.11381744 104.73046509 -0.1139679 103.53326416 C-0.11327505 99.71877124 -0.10551219 95.90432806 -0.09765625 92.08984375 C-0.09578984 89.43469663 -0.09431775 86.77955221 -0.09336853 84.12440491 C-0.09027133 77.86669475 -0.08207983 71.60900224 -0.07201904 65.35129982 C-0.05970604 57.52131266 -0.05426256 49.69132257 -0.04882812 41.86132812 C-0.03911335 27.90753836 -0.01907703 13.95378707 0 0 Z " fill="#FEFEFE" transform="translate(1176,113)"/>
<path d="M0 0 C12.47870679 11.4058768 17.82548436 28.0453156 19.0390625 44.453125 C19.39146969 53.57985064 19.27237888 62.72010129 19.234375 71.8515625 C19.23063909 74.49956596 19.22769628 77.14755855 19.22579956 79.79556274 C19.21962507 86.0177163 19.20326989 92.23979816 19.18310058 98.46192038 C19.15840197 106.25324558 19.14757165 114.04458283 19.13671875 121.8359375 C19.11733498 135.70838894 19.07725521 149.58068432 19.0390625 163.453125 C-3.0709375 163.453125 -25.1809375 163.453125 -47.9609375 163.453125 C-48.00992188 156.71132813 -48.05890625 149.96953125 -48.109375 143.0234375 C-48.1447814 138.73956878 -48.18075291 134.45571961 -48.21875 130.171875 C-48.27894023 123.37991203 -48.33709482 116.58797626 -48.3828125 109.79589844 C-48.41982311 104.31690131 -48.46622516 98.83805523 -48.51900101 93.35918808 C-48.53746139 91.27416522 -48.55259981 89.18911009 -48.56428146 87.10403824 C-48.58128766 84.17223051 -48.61035602 81.24076246 -48.64208984 78.30908203 C-48.64425003 77.45671463 -48.64641022 76.60434723 -48.64863586 75.72615051 C-48.78525447 65.77554625 -50.03092759 56.67313549 -57.0859375 49.203125 C-70.4820824 41.04894984 -90.30908348 41.91071473 -104.9609375 45.453125 C-110.46124814 47.28409094 -114.73783337 49.18037433 -117.5234375 54.453125 C-120.10263856 60.57409977 -120.12523889 66.66401529 -120.16625977 73.20043945 C-120.17615936 74.17652664 -120.18605896 75.15261383 -120.19625854 76.15827942 C-120.22779137 79.37763054 -120.25259851 82.5969964 -120.27734375 85.81640625 C-120.29792037 88.05128864 -120.31891703 90.28616721 -120.34031677 92.52104187 C-120.3954643 98.39821263 -120.44490586 104.27541809 -120.49316406 110.15264893 C-120.55227343 117.20704181 -120.61846111 124.2613714 -120.68346405 131.31571198 C-120.78138146 142.02814427 -120.87030062 152.74061749 -120.9609375 163.453125 C-143.0709375 163.453125 -165.1809375 163.453125 -187.9609375 163.453125 C-187.9609375 105.043125 -187.9609375 46.633125 -187.9609375 -13.546875 C-167.1709375 -13.546875 -146.3809375 -13.546875 -124.9609375 -13.546875 C-124.9609375 4.273125 -124.9609375 22.093125 -124.9609375 40.453125 C-124.3009375 40.453125 -123.6409375 40.453125 -122.9609375 40.453125 C-122.83138672 39.36257812 -122.83138672 39.36257812 -122.69921875 38.25 C-120.50733701 22.56497472 -113.34005297 7.65297695 -100.9609375 -2.546875 C-71.82634459 -23.35025606 -27.95530567 -22.05239252 0 0 Z " fill="#FEFEFE" transform="translate(801.9609375,126.546875)"/>
<path d="M0 0 C12.76151852 12.21669178 16.13999107 26.78584788 17.5625 43.6875 C17.5625 44.3475 17.5625 45.0075 17.5625 45.6875 C-4.8775 45.6875 -27.3175 45.6875 -50.4375 45.6875 C-51.4275 41.2325 -51.4275 41.2325 -52.4375 36.6875 C-58.66726225 30.45773775 -70.79794543 31.49157473 -79 31.4375 C-79.87398437 31.42823486 -80.74796875 31.41896973 -81.6484375 31.40942383 C-91.96179008 31.27719586 -91.96179008 31.27719586 -101.20922852 35.03027344 C-103.20649365 37.72505295 -102.6203525 40.45710587 -102.4375 43.6875 C-93.97831316 46.03546395 -85.67844006 47.4428852 -76.95703125 48.37109375 C-74.38475741 48.66203676 -71.81249205 48.95305475 -69.24023438 49.24414062 C-65.91236943 49.61383733 -62.58404761 49.97933987 -59.25549316 50.34277344 C-0.07136973 56.8068911 -0.07136973 56.8068911 15.1328125 75.6484375 C22.96331239 86.81652751 24.9210134 101.08742707 23 114.4375 C19.77960402 128.71458885 11.24107785 138.73559325 -0.7890625 146.515625 C-21.23279712 159.0639249 -44.99873663 162.1267205 -68.5625 162 C-69.2740625 161.99817719 -69.985625 161.99635437 -70.71875 161.99447632 C-99.13862817 161.87275614 -128.32260893 157.74755594 -149.7734375 137.48046875 C-155.80169202 131.28198113 -159.36658463 124.73433926 -162.4375 116.6875 C-162.70433594 115.99011719 -162.97117187 115.29273438 -163.24609375 114.57421875 C-165.2858616 108.00475953 -164.4375 101.70508786 -164.4375 94.6875 C-142.6575 94.6875 -120.8775 94.6875 -98.4375 94.6875 C-97.4475 100.1325 -97.4475 100.1325 -96.4375 105.6875 C-81.6180817 110.51991901 -61.49195969 110.77933716 -46.4375 106.6875 C-44.49731871 105.44268131 -44.49731871 105.44268131 -43.4375 103.6875 C-43.67033149 100.53828091 -43.67033149 100.53828091 -44.4375 97.6875 C-52.39080383 94.87919772 -60.19564927 93.82799168 -68.5625 93.00390625 C-69.91768106 92.86196839 -71.27274123 92.71887206 -72.62768555 92.57469177 C-77.61041035 92.0468972 -82.59510796 91.53891134 -87.58001709 91.03222656 C-132.00684951 86.51032096 -132.00684951 86.51032096 -143.9375 80.0625 C-144.58565674 79.72331543 -145.23381348 79.38413086 -145.90161133 79.03466797 C-155.47384791 73.75713119 -162.82621454 66.09563574 -166.4375 55.6875 C-170.71502327 40.43795566 -170.85655904 25.3340133 -163.00390625 11.05859375 C-152.14021873 -5.38594073 -134.69353357 -13.97304245 -115.91113281 -18.09741211 C-78.80899179 -25.59900648 -30.44161496 -25.55817748 0 0 Z " fill="#FEFEFE" transform="translate(1977.4375,131.3125)"/>
<path d="M0 0 C22.11 0 44.22 0 67 0 C67 77.22 67 154.44 67 234 C44.89 234 22.78 234 0 234 C0 156.78 0 79.56 0 0 Z " fill="#FEFEFE" transform="translate(1492,56)"/>
<path d="M0 0 C22.11 0 44.22 0 67 0 C67 58.41 67 116.82 67 177 C44.89 177 22.78 177 0 177 C0 118.59 0 60.18 0 0 Z " fill="#FEFEFE" transform="translate(1405,113)"/>
<path d="M0 0 C22.11 0 44.22 0 67 0 C67 58.41 67 116.82 67 177 C44.89 177 22.78 177 0 177 C0 118.59 0 60.18 0 0 Z " fill="#FEFEFE" transform="translate(839,113)"/>
<path d="M0 0 C22.11 0 44.22 0 67 0 C67 58.41 67 116.82 67 177 C44.89 177 22.78 177 0 177 C0 118.59 0 60.18 0 0 Z " fill="#FEFEFE" transform="translate(527,113)"/>
<path d="M0 0 C22.11 0 44.22 0 67 0 C67 14.19 67 28.38 67 43 C44.89 43 22.78 43 0 43 C0 28.81 0 14.62 0 0 Z " fill="#FEFEFE" transform="translate(1405,56)"/>
<path d="M0 0 C22.11 0 44.22 0 67 0 C67 14.19 67 28.38 67 43 C44.89 43 22.78 43 0 43 C0 28.81 0 14.62 0 0 Z " fill="#FEFEFE" transform="translate(839,56)"/>
<path d="M0 0 C22.11 0 44.22 0 67 0 C67 14.19 67 28.38 67 43 C44.89 43 22.78 43 0 43 C0 28.81 0 14.62 0 0 Z " fill="#FEFEFE" transform="translate(527,56)"/>
</svg>
